900.ufo
<glyph name="slash" format="2">
  <advance width="665"/>
  <unicode hex="002F"/>
  <outline>
    <contour>
      <point x="465" y="700" type="line"/>
      <point x="650" y="700" type="line"/>
      <point x="210" y="-150" type="line"/>
      <point x="15" y="-150" type="line"/>
    </contour>
  </outline>
</glyph>
<glyph name="one" format="2">
  <advance width="545"/>
  <unicode hex="0031"/>
  <outline>
    <contour>
      <point x="60" y="459" type="line"/>
      <point x="60" y="642" type="line"/>
      <point x="455" y="715" type="line"/>
      <point x="455" y="0" type="line"/>
      <point x="245" y="0" type="line"/>
      <point x="245" y="500" type="line"/>
    </contour>
  </outline>
</glyph>
<glyph name="two" format="2">
  <advance width="709"/>
  <unicode hex="0032"/>
  <outline>
    <contour>
      <point x="20" y="0" type="line"/>
      <point x="321" y="305" type="line" smooth="yes"/>
      <point x="383" y="372"/>
      <point x="421" y="410"/>
      <point x="421" y="465" type="curve" smooth="yes"/>
      <point x="421" y="500"/>
      <point x="400" y="531"/>
      <point x="349" y="531" type="curve" smooth="yes"/>
      <point x="299" y="531"/>
      <point x="265" y="486"/>
      <point x="265" y="430" type="curve"/>
      <point x="50" y="430" type="line"/>
      <point x="50" y="579"/>
      <point x="152" y="716"/>
      <point x="357" y="716" type="curve" smooth="yes"/>
      <point x="542" y="716"/>
      <point x="649" y="600"/>
      <point x="649" y="481" type="curve" smooth="yes"/>
      <point x="649" y="404"/>
      <point x="607" y="346"/>
      <point x="543" y="297" type="curve" smooth="yes"/>
      <point x="417" y="200" type="line"/>
      <point x="674" y="200" type="line"/>
      <point x="674" y="0" type="line"/>
    </contour>
  </outline>
</glyph>
<glyph name="three" format="2">
  <advance width="666"/>
  <unicode hex="0033"/>
  <outline>
    <contour>
      <point x="288" y="335" type="curve"/>
      <point x="288" y="424" type="line"/>
      <point x="358" y="424"/>
      <point x="410" y="460"/>
      <point x="410" y="501" type="curve" smooth="yes"/>
      <point x="410" y="527"/>
      <point x="390" y="545"/>
      <point x="347" y="545" type="curve" smooth="yes"/>
      <point x="302" y="545"/>
      <point x="271" y="517"/>
      <point x="271" y="476" type="curve"/>
      <point x="70" y="476" type="line"/>
      <point x="70" y="610"/>
      <point x="178" y="715"/>
      <point x="348" y="715" type="curve" smooth="yes"/>
      <point x="528" y="715"/>
      <point x="626" y="630"/>
      <point x="626" y="516" type="curve" smooth="yes"/>
      <point x="626" y="382"/>
      <point x="473" y="335"/>
    </contour>
    <contour>
      <point x="338" y="-20" type="curve" smooth="yes"/>
      <point x="148" y="-20"/>
      <point x="40" y="111"/>
      <point x="40" y="245" type="curve"/>
      <point x="256" y="245" type="line"/>
      <point x="256" y="174"/>
      <point x="303" y="150"/>
      <point x="348" y="150" type="curve" smooth="yes"/>
      <point x="393" y="150"/>
      <point x="430" y="164"/>
      <point x="430" y="215" type="curve" smooth="yes"/>
      <point x="430" y="256"/>
      <point x="398" y="295"/>
      <point x="288" y="295" type="curve"/>
      <point x="288" y="399" type="line"/>
      <point x="503" y="399"/>
      <point x="646" y="339"/>
      <point x="646" y="195" type="curve" smooth="yes"/>
      <point x="646" y="71"/>
      <point x="538" y="-20"/>
    </contour>
  </outline>
</glyph>
<glyph name="colon" format="2">
  <advance width="336"/>
  <unicode hex="003A"/>
  <outline>
    <contour>
      <point x="50" y="85" type="curve" smooth="yes"/>
      <point x="50" y="148"/>
      <point x="98" y="200"/>
      <point x="168" y="200" type="curve" smooth="yes"/>
      <point x="238" y="200"/>
      <point x="286" y="148"/>
      <point x="286" y="85" type="curve" smooth="yes"/>
      <point x="286" y="22"/>
      <point x="238" y="-30"/>
      <point x="168" y="-30" type="curve" smooth="yes"/>
      <point x="98" y="-30"/>
      <point x="50" y="22"/>
    </contour>
    <contour>
      <point x="50" y="455" type="curve" smooth="yes"/>
      <point x="50" y="518"/>
      <point x="98" y="570"/>
      <point x="168" y="570" type="curve" smooth="yes"/>
      <point x="238" y="570"/>
      <point x="286" y="518"/>
      <point x="286" y="455" type="curve" smooth="yes"/>
      <point x="286" y="392"/>
      <point x="238" y="340"/>
      <point x="168" y="340" type="curve" smooth="yes"/>
      <point x="98" y="340"/>
      <point x="50" y="392"/>
    </contour>
  </outline>
</glyph>
<glyph name="semicolon" format="2">
  <advance width="431"/>
  <unicode hex="003B"/>
  <outline>
    <contour>
      <point x="115" y="445" type="curve" smooth="yes"/>
      <point x="115" y="508"/>
      <point x="163" y="560"/>
      <point x="233" y="560" type="curve" smooth="yes"/>
      <point x="303" y="560"/>
      <point x="351" y="508"/>
      <point x="351" y="445" type="curve" smooth="yes"/>
      <point x="351" y="382"/>
      <point x="303" y="330"/>
      <point x="233" y="330" type="curve" smooth="yes"/>
      <point x="163" y="330"/>
      <point x="115" y="382"/>
    </contour>
    <contour>
      <point x="138" y="110" type="line"/>
      <point x="333" y="76" type="line"/>
      <point x="198" y="-174" type="line"/>
      <point x="50" y="-149" type="line"/>
    </contour>
  </outline>
</glyph>
<glyph name="E" format="2">
  <advance width="635"/>
  <unicode hex="0045"/>
  <outline>
    <contour>
      <point x="222" y="0" type="line"/>
      <point x="222" y="175" type="line"/>
      <point x="575" y="175" type="line"/>
      <point x="575" y="0" type="line"/>
    </contour>
    <contour>
      <point x="222" y="525" type="line"/>
      <point x="222" y="700" type="line"/>
      <point x="575" y="700" type="line"/>
      <point x="575" y="525" type="line"/>
    </contour>
    <contour>
      <point x="222" y="275" type="line"/>
      <point x="222" y="445" type="line"/>
      <point x="555" y="445" type="line"/>
      <point x="555" y="275" type="line"/>
    </contour>
    <contour>
      <point x="70" y="700" type="line"/>
      <point x="280" y="700" type="line"/>
      <point x="280" y="0" type="line"/>
      <point x="70" y="0" type="line"/>
    </contour>
  </outline>
</glyph>
<glyph name="H" format="2">
  <advance width="830"/>
  <unicode hex="0048"/>
  <outline>
    <contour>
      <point x="117" y="265" type="line"/>
      <point x="117" y="460" type="line"/>
      <point x="677" y="460" type="line"/>
      <point x="677" y="265" type="line"/>
    </contour>
    <contour>
      <point x="540" y="700" type="line"/>
      <point x="760" y="700" type="line"/>
      <point x="760" y="0" type="line"/>
      <point x="540" y="0" type="line"/>
    </contour>
    <contour>
      <point x="70" y="700" type="line"/>
      <point x="290" y="700" type="line"/>
      <point x="290" y="0" type="line"/>
      <point x="70" y="0" type="line"/>
    </contour>
  </outline>
</glyph>
<glyph name="I" format="2">
  <advance width="365"/>
  <unicode hex="0049"/>
  <outline>
    <contour>
      <point x="70" y="700" type="line"/>
      <point x="295" y="700" type="line"/>
      <point x="295" y="0" type="line"/>
      <point x="70" y="0" type="line"/>
    </contour>
  </outline>
</glyph>
<glyph name="S" format="2">
  <advance width="672"/>
  <unicode hex="0053"/>
  <outline>
    <contour>
      <point x="178" y="266" type="line"/>
      <point x="218" y="195"/>
      <point x="279" y="154"/>
      <point x="342" y="154" type="curve" smooth="yes"/>
      <point x="377" y="154"/>
      <point x="404" y="167"/>
      <point x="404" y="198" type="curve" smooth="yes"/>
      <point x="404" y="225"/>
      <point x="386" y="236"/>
      <point x="272" y="280" type="curve" smooth="yes"/>
      <point x="204" y="306"/>
      <point x="84" y="368"/>
      <point x="84" y="509" type="curve" smooth="yes"/>
      <point x="84" y="646"/>
      <point x="207" y="720"/>
      <point x="353" y="720" type="curve" smooth="yes"/>
      <point x="511" y="720"/>
      <point x="599" y="635"/>
      <point x="637" y="564" type="curve"/>
      <point x="474" y="474" type="line"/>
      <point x="441" y="523"/>
      <point x="398" y="542"/>
      <point x="360" y="542" type="curve" smooth="yes"/>
      <point x="329" y="542"/>
      <point x="308" y="532"/>
      <point x="308" y="509" type="curve" smooth="yes"/>
      <point x="308" y="467"/>
      <point x="376" y="452"/>
      <point x="458" y="423" type="curve" smooth="yes"/>
      <point x="570" y="384"/>
      <point x="637" y="313"/>
      <point x="637" y="205" type="curve" smooth="yes"/>
      <point x="637" y="49"/>
      <point x="496" y="-30"/>
      <point x="352" y="-30" type="curve" smooth="yes"/>
      <point x="201" y="-30"/>
      <point x="77" y="51"/>
      <point x="30" y="158" type="curve"/>
    </contour>
  </outline>
</glyph>
<glyph name="V" format="2">
  <advance width="780"/>
  <unicode hex="0056"/>
  <outline>
    <contour>
      <point x="390" y="358" type="line"/>
      <point x="525" y="700" type="line"/>
      <point x="785" y="700" type="line"/>
      <point x="390" y="-50" type="line"/>
      <point x="-5" y="700" type="line"/>
      <point x="255" y="700" type="line"/>
    </contour>
  </outline>
</glyph>
<glyph name="bracketleft" format="2">
  <advance width="400"/>
  <unicode hex="005B"/>
  <outline>
    <contour>
      <point x="279" y="615" type="line"/>
      <point x="279" y="-55" type="line"/>
      <point x="380" y="-55" type="line"/>
      <point x="380" y="-220" type="line"/>
      <point x="85" y="-220" type="line"/>
      <point x="85" y="780" type="line"/>
      <point x="380" y="780" type="line"/>
      <point x="380" y="615" type="line"/>
    </contour>
  </outline>
</glyph>
<glyph name="underscore" format="2">
  <advance width="550"/>
  <unicode hex="005F"/>
  <outline>
    <contour>
      <point x="0" y="-166" type="line"/>
      <point x="0" y="-45" type="line"/>
      <point x="550" y="-45" type="line"/>
      <point x="550" y="-166" type="line"/>
    </contour>
  </outline>
</glyph>
<glyph name="a" format="2">
  <advance width="574"/>
  <unicode hex="0061"/>
  <outline>
    <contour>
      <point x="216" y="145" type="curve" smooth="yes"/>
      <point x="216" y="119"/>
      <point x="238" y="106"/>
      <point x="262" y="106" type="curve" smooth="yes"/>
      <point x="300" y="106"/>
      <point x="339" y="130"/>
      <point x="339" y="190" type="curve"/>
      <point x="355" y="130" type="line"/>
      <point x="355" y="41"/>
      <point x="282" y="-10"/>
      <point x="187" y="-10" type="curve" smooth="yes"/>
      <point x="96" y="-10"/>
      <point x="20" y="39"/>
      <point x="20" y="134" type="curve" smooth="yes"/>
      <point x="20" y="222"/>
      <point x="84" y="275"/>
      <point x="201" y="275" type="curve" smooth="yes"/>
      <point x="272" y="275"/>
      <point x="342" y="257"/>
      <point x="372" y="226" type="curve"/>
      <point x="372" y="147" type="line"/>
      <point x="349" y="167"/>
      <point x="308" y="180"/>
      <point x="268" y="180" type="curve" smooth="yes"/>
      <point x="230" y="180"/>
      <point x="216" y="168"/>
    </contour>
    <contour>
      <point x="115" y="298" type="curve"/>
      <point x="56" y="424" type="line"/>
      <point x="120" y="449"/>
      <point x="203" y="475"/>
      <point x="291" y="475" type="curve" smooth="yes"/>
      <point x="421" y="475"/>
      <point x="524" y="419"/>
      <point x="524" y="320" type="curve" smooth="yes"/>
      <point x="524" y="0" type="line"/>
      <point x="339" y="0" type="line"/>
      <point x="339" y="272" type="line" smooth="yes"/>
      <point x="339" y="307"/>
      <point x="319" y="333"/>
      <point x="262" y="333" type="curve" smooth="yes"/>
      <point x="206" y="333"/>
      <point x="132" y="308"/>
    </contour>
  </outline>
</glyph>
<glyph name="f" format="2">
  <advance width="379"/>
  <unicode hex="0066"/>
  <outline>
    <contour>
      <point x="5" y="460" type="line"/>
      <point x="370" y="460" type="line"/>
      <point x="370" y="305" type="line"/>
      <point x="5" y="305" type="line"/>
    </contour>
    <contour>
      <point x="348" y="605" type="line"/>
      <point x="335" y="620"/>
      <point x="322" y="630"/>
      <point x="303" y="630" type="curve" smooth="yes"/>
      <point x="273" y="630"/>
      <point x="255" y="611"/>
      <point x="255" y="575" type="curve" smooth="yes"/>
      <point x="255" y="0" type="line"/>
      <point x="70" y="0" type="line"/>
      <point x="70" y="630" type="line" smooth="yes"/>
      <point x="70" y="729"/>
      <point x="134" y="800"/>
      <point x="268" y="800" type="curve" smooth="yes"/>
      <point x="351" y="800"/>
      <point x="394" y="763"/>
      <point x="419" y="743" type="curve"/>
    </contour>
  </outline>
</glyph>
<glyph name="m" format="2">
  <advance width="845"/>
  <unicode hex="006D"/>
  <outline>
    <contour>
      <point x="795" y="300" type="curve" smooth="yes"/>
      <point x="795" y="0" type="line"/>
      <point x="600" y="0" type="line"/>
      <point x="600" y="280" type="line" smooth="yes"/>
      <point x="600" y="321"/>
      <point x="589" y="346"/>
      <point x="559" y="346" type="curve" smooth="yes"/>
      <point x="534" y="346"/>
      <point x="515" y="326"/>
      <point x="515" y="280" type="curve" smooth="yes"/>
      <point x="515" y="0" type="line"/>
      <point x="320" y="0" type="line"/>
      <point x="320" y="280" type="line" smooth="yes"/>
      <point x="320" y="321"/>
      <point x="309" y="346"/>
      <point x="279" y="346" type="curve" smooth="yes"/>
      <point x="254" y="346"/>
      <point x="235" y="326"/>
      <point x="235" y="280" type="curve" smooth="yes"/>
      <point x="235" y="0" type="line"/>
      <point x="50" y="0" type="line"/>
      <point x="50" y="460" type="line"/>
      <point x="235" y="460" type="line"/>
      <point x="235" y="391" type="line"/>
      <point x="260" y="439"/>
      <point x="305" y="471"/>
      <point x="372" y="471" type="curve" smooth="yes"/>
      <point x="448" y="471"/>
      <point x="486" y="448"/>
      <point x="503" y="401" type="curve"/>
      <point x="537" y="444"/>
      <point x="589" y="471"/>
      <point x="652" y="471" type="curve" smooth="yes"/>
      <point x="767" y="471"/>
      <point x="795" y="409"/>
    </contour>
  </outline>
</glyph>
<glyph name="u" format="2">
  <advance width="605"/>
  <unicode hex="0075"/>
  <outline>
    <contour>
      <point x="255" y="180" type="line" smooth="yes"/>
      <point x="255" y="139"/>
      <point x="263" y="114"/>
      <point x="303" y="114" type="curve" smooth="yes"/>
      <point x="338" y="114"/>
      <point x="360" y="134"/>
      <point x="360" y="180" type="curve" smooth="yes"/>
      <point x="360" y="460" type="line"/>
      <point x="555" y="460" type="line"/>
      <point x="555" y="0" type="line"/>
      <point x="360" y="0" type="line"/>
      <point x="360" y="67" type="line"/>
      <point x="335" y="20"/>
      <point x="290" y="-11"/>
      <point x="218" y="-11" type="curve" smooth="yes"/>
      <point x="93" y="-11"/>
      <point x="50" y="51"/>
      <point x="50" y="160" type="curve" smooth="yes"/>
      <point x="50" y="460" type="line"/>
      <point x="255" y="460" type="line"/>
    </contour>
  </outline>
</glyph>
<glyph name="z" format="2">
  <advance width="560"/>
  <unicode hex="007A"/>
  <outline>
    <contour>
      <point x="230" y="285" type="line"/>
      <point x="65" y="285" type="line"/>
      <point x="65" y="460" type="line"/>
      <point x="545" y="460" type="line"/>
      <point x="349" y="175" type="line"/>
      <point x="505" y="175" type="line"/>
      <point x="505" y="0" type="line"/>
      <point x="15" y="0" type="line"/>
    </contour>
  </outline>
</glyph>
<glyph name="exclamdown" format="2">
  <advance width="370"/>
  <unicode hex="00A1"/>
  <outline>
    <contour>
      <point x="305" y="-220" type="line"/>
      <point x="65" y="-220" type="line"/>
      <point x="105" y="230" type="line"/>
      <point x="265" y="230" type="line"/>
    </contour>
    <contour>
      <point x="303" y="405" type="curve" smooth="yes"/>
      <point x="303" y="342"/>
      <point x="255" y="300"/>
      <point x="185" y="300" type="curve" smooth="yes"/>
      <point x="115" y="300"/>
      <point x="67" y="342"/>
      <point x="67" y="405" type="curve" smooth="yes"/>
      <point x="67" y="468"/>
      <point x="115" y="510"/>
      <point x="185" y="510" type="curve" smooth="yes"/>
      <point x="255" y="510"/>
      <point x="303" y="468"/>
    </contour>
  </outline>
</glyph>
<glyph name="currency" format="2">
  <advance width="575"/>
  <unicode hex="00A4"/>
  <outline>
    <contour>
      <point x="15" y="503" type="line"/>
      <point x="85" y="573" type="line"/>
      <point x="188" y="469" type="line"/>
      <point x="119" y="400" type="line"/>
    </contour>
    <contour>
      <point x="85" y="27" type="line"/>
      <point x="15" y="97" type="line"/>
      <point x="119" y="200" type="line"/>
      <point x="188" y="131" type="line"/>
    </contour>
    <contour>
      <point x="457" y="400" type="line"/>
      <point x="387" y="469" type="line"/>
      <point x="491" y="573" type="line"/>
      <point x="560" y="503" type="line"/>
    </contour>
    <contour>
      <point x="387" y="131" type="line"/>
      <point x="457" y="200" type="line"/>
      <point x="560" y="97" type="line"/>
      <point x="491" y="27" type="line"/>
    </contour>
    <contour>
      <point x="50" y="300" type="curve" smooth="yes"/>
      <point x="50" y="439"/>
      <point x="153" y="540"/>
      <point x="288" y="540" type="curve" smooth="yes"/>
      <point x="423" y="540"/>
      <point x="526" y="439"/>
      <point x="526" y="300" type="curve" smooth="yes"/>
      <point x="526" y="161"/>
      <point x="423" y="60"/>
      <point x="288" y="60" type="curve" smooth="yes"/>
      <point x="153" y="60"/>
      <point x="50" y="161"/>
    </contour>
    <contour>
      <point x="221" y="300" type="curve" smooth="yes"/>
      <point x="221" y="259"/>
      <point x="248" y="235"/>
      <point x="288" y="235" type="curve" smooth="yes"/>
      <point x="328" y="235"/>
      <point x="355" y="259"/>
      <point x="355" y="300" type="curve" smooth="yes"/>
      <point x="355" y="341"/>
      <point x="328" y="365"/>
      <point x="288" y="365" type="curve" smooth="yes"/>
      <point x="248" y="365"/>
      <point x="221" y="341"/>
    </contour>
  </outline>
</glyph>
<glyph name="brokenbar" format="2">
  <advance width="400"/>
  <unicode hex="00A6"/>
  <outline>
    <contour>
      <point x="100" y="695" type="line"/>
      <point x="300" y="695" type="line"/>
      <point x="300" y="415" type="line"/>
      <point x="100" y="415" type="line"/>
    </contour>
    <contour>
      <point x="300" y="285" type="line"/>
      <point x="300" y="5" type="line"/>
      <point x="100" y="5" type="line"/>
      <point x="100" y="285" type="line"/>
    </contour>
  </outline>
</glyph>
<glyph name="dieresis" format="2">
  <advance width="536"/>
  <unicode hex="00A8"/>
  <outline>
    <contour>
      <point x="295" y="615" type="curve" smooth="yes"/>
      <point x="295" y="674"/>
      <point x="343" y="713"/>
      <point x="403" y="713" type="curve" smooth="yes"/>
      <point x="463" y="713"/>
      <point x="511" y="674"/>
      <point x="511" y="615" type="curve" smooth="yes"/>
      <point x="511" y="556"/>
      <point x="463" y="517"/>
      <point x="403" y="517" type="curve" smooth="yes"/>
      <point x="343" y="517"/>
      <point x="295" y="556"/>
    </contour>
    <contour>
      <point x="25" y="615" type="curve" smooth="yes"/>
      <point x="25" y="674"/>
      <point x="73" y="713"/>
      <point x="133" y="713" type="curve" smooth="yes"/>
      <point x="193" y="713"/>
      <point x="241" y="674"/>
      <point x="241" y="615" type="curve" smooth="yes"/>
      <point x="241" y="556"/>
      <point x="193" y="517"/>
      <point x="133" y="517" type="curve" smooth="yes"/>
      <point x="73" y="517"/>
      <point x="25" y="556"/>
    </contour>
  </outline>
</glyph>
<glyph name="guillemotleft" format="2">
  <advance width="560"/>
  <unicode hex="00AB"/>
  <outline>
    <contour>
      <point x="389.767" y="259.419" type="line"/>
      <point x="540" y="65" type="line"/>
      <point x="420" y="-10" type="line"/>
      <point x="250" y="255" type="line"/>
      <point x="420" y="520" type="line"/>
      <point x="540" y="445" type="line"/>
    </contour>
    <contour>
      <point x="159.767" y="259.419" type="line"/>
      <point x="310" y="65" type="line"/>
      <point x="190" y="-10" type="line"/>
      <point x="20" y="255" type="line"/>
      <point x="190" y="520" type="line"/>
      <point x="310" y="445" type="line"/>
    </contour>
  </outline>
</glyph>
<glyph name="uni00B2" format="2">
  <advance width="446"/>
  <unicode hex="00B2"/>
  <outline>
    <contour>
      <point x="25" y="282" type="line"/>
      <point x="206" y="465" type="line" smooth="yes"/>
      <point x="243" y="505"/>
      <point x="266" y="528"/>
      <point x="266" y="561" type="curve" smooth="yes"/>
      <point x="266" y="582"/>
      <point x="253" y="601"/>
      <point x="222" y="601" type="curve" smooth="yes"/>
      <point x="192" y="601"/>
      <point x="172" y="574"/>
      <point x="172" y="540" type="curve"/>
      <point x="43" y="540" type="line"/>
      <point x="43" y="629"/>
      <point x="104" y="712"/>
      <point x="227" y="712" type="curve" smooth="yes"/>
      <point x="338" y="712"/>
      <point x="402" y="642"/>
      <point x="402" y="571" type="curve" smooth="yes"/>
      <point x="402" y="525"/>
      <point x="377" y="489"/>
      <point x="339" y="460" type="curve" smooth="yes"/>
      <point x="263" y="402" type="line"/>
      <point x="417" y="402" type="line"/>
      <point x="417" y="282" type="line"/>
    </contour>
  </outline>
</glyph>
<glyph name="mu" format="2">
  <advance width="605"/>
  <unicode hex="00B5"/>
  <outline>
    <contour>
      <point x="255" y="460" type="line"/>
      <point x="255" y="220" type="line" smooth="yes"/>
      <point x="255" y="179"/>
      <point x="263" y="154"/>
      <point x="303" y="154" type="curve" smooth="yes"/>
      <point x="338" y="154"/>
      <point x="360" y="174"/>
      <point x="360" y="220" type="curve" smooth="yes"/>
      <point x="360" y="460" type="line"/>
      <point x="555" y="460" type="line"/>
      <point x="555" y="0" type="line"/>
      <point x="360" y="0" type="line"/>
      <point x="360" y="47" type="line"/>
      <point x="347" y="22"/>
      <point x="324.017" y="0"/>
      <point x="294" y="0" type="curve" smooth="yes"/>
      <point x="276" y="0"/>
      <point x="261" y="2"/>
      <point x="235" y="20" type="curve"/>
      <point x="235" y="-320" type="line"/>
      <point x="50" y="-320" type="line"/>
      <point x="50" y="460" type="line"/>
    </contour>
  </outline>
</glyph>
<glyph name="paragraph" format="2">
  <advance width="728"/>
  <unicode hex="00B6"/>
  <outline>
    <contour>
      <point x="288" y="270" type="line"/>
      <point x="163" y="270"/>
      <point x="60" y="346"/>
      <point x="60" y="485" type="curve" smooth="yes"/>
      <point x="60" y="624"/>
      <point x="163" y="700"/>
      <point x="288" y="700" type="curve" smooth="yes"/>
      <point x="668" y="700" type="line"/>
      <point x="668" y="-220" type="line"/>
      <point x="498" y="-220" type="line"/>
      <point x="498" y="590" type="line"/>
      <point x="458" y="590" type="line"/>
      <point x="458" y="-220" type="line"/>
      <point x="288" y="-220" type="line"/>
    </contour>
  </outline>
</glyph>
<glyph name="onehalf" format="2">
  <advance width="939"/>
  <unicode hex="00BD"/>
  <outline>
    <contour>
      <point x="638" y="700" type="line"/>
      <point x="753" y="700" type="line"/>
      <point x="233" y="0" type="line"/>
      <point x="118" y="0" type="line"/>
    </contour>
    <contour>
      <point x="20" y="549" type="line"/>
      <point x="20" y="659" type="line"/>
      <point x="257" y="703" type="line"/>
      <point x="257" y="274" type="line"/>
      <point x="131" y="274" type="line"/>
      <point x="131" y="574" type="line"/>
    </contour>
    <contour>
      <point x="513" y="2" type="line"/>
      <point x="694" y="185" type="line" smooth="yes"/>
      <point x="731" y="225"/>
      <point x="754" y="248"/>
      <point x="754" y="281" type="curve" smooth="yes"/>
      <point x="754" y="302"/>
      <point x="741" y="321"/>
      <point x="710" y="321" type="curve" smooth="yes"/>
      <point x="680" y="321"/>
      <point x="660" y="294"/>
      <point x="660" y="260" type="curve"/>
      <point x="531" y="260" type="line"/>
      <point x="531" y="349"/>
      <point x="592" y="432"/>
      <point x="715" y="432" type="curve" smooth="yes"/>
      <point x="826" y="432"/>
      <point x="890" y="362"/>
      <point x="890" y="291" type="curve" smooth="yes"/>
      <point x="890" y="245"/>
      <point x="865" y="209"/>
      <point x="827" y="180" type="curve" smooth="yes"/>
      <point x="751" y="122" type="line"/>
      <point x="905" y="122" type="line"/>
      <point x="905" y="2" type="line"/>
    </contour>
  </outline>
</glyph>
<glyph name="Acircumflex" format="2">
  <advance width="780"/>
  <unicode hex="00C2"/>
  <outline>
    <contour>
      <point x="207" y="90" type="line"/>
      <point x="207" y="248" type="line"/>
      <point x="577" y="248" type="line"/>
      <point x="577" y="90" type="line"/>
    </contour>
    <contour>
      <point x="390" y="382" type="line"/>
      <point x="304" y="189" type="line"/>
      <point x="321" y="139" type="line"/>
      <point x="245" y="0" type="line"/>
      <point x="-5" y="0" type="line"/>
      <point x="390" y="750" type="line"/>
      <point x="785" y="0" type="line"/>
      <point x="535" y="0" type="line"/>
      <point x="461" y="132" type="line"/>
      <point x="476" y="189" type="line"/>
    </contour>
    <contour>
      <point x="390" y="890" type="line"/>
      <point x="310" y="810" type="line"/>
      <point x="170" y="900" type="line"/>
      <point x="390" y="1040" type="line"/>
      <point x="610" y="900" type="line"/>
      <point x="470" y="810" type="line"/>
    </contour>
  </outline>
</glyph>
<glyph name="Igrave" format="2">
  <advance width="365"/>
  <unicode hex="00CC"/>
  <outline>
    <contour>
      <point x="70" y="700" type="line"/>
      <point x="295" y="700" type="line"/>
      <point x="295" y="0" type="line"/>
      <point x="70" y="0" type="line"/>
    </contour>
    <contour>
      <point x="-8" y="940" type="line"/>
      <point x="132" y="1000" type="line"/>
      <point x="282" y="840" type="line"/>
      <point x="172" y="790" type="line"/>
    </contour>
  </outline>
</glyph>
<glyph name="Eth" format="2">
  <advance width="765"/>
  <unicode hex="00D0"/>
  <outline>
    <contour>
      <point x="6" y="298" type="line"/>
      <point x="6" y="413" type="line"/>
      <point x="386" y="413" type="line"/>
      <point x="386" y="298" type="line"/>
    </contour>
    <contour>
      <point x="70" y="700" type="line"/>
      <point x="299" y="700" type="line"/>
      <point x="299" y="0" type="line"/>
      <point x="70" y="0" type="line"/>
    </contour>
    <contour>
      <point x="345" y="0" type="curve" smooth="yes"/>
      <point x="222" y="0" type="line"/>
      <point x="222" y="190" type="line"/>
      <point x="335" y="190" type="line" smooth="yes"/>
      <point x="413" y="190"/>
      <point x="505" y="207"/>
      <point x="505" y="350" type="curve" smooth="yes"/>
      <point x="505" y="493"/>
      <point x="413" y="510"/>
      <point x="335" y="510" type="curve" smooth="yes"/>
      <point x="222" y="510" type="line"/>
      <point x="222" y="700" type="line"/>
      <point x="345" y="700" type="line" smooth="yes"/>
      <point x="589" y="700"/>
      <point x="735" y="569"/>
      <point x="735" y="350" type="curve" smooth="yes"/>
      <point x="735" y="131"/>
      <point x="589" y="0"/>
    </contour>
  </outline>
</glyph>
<glyph name="germandbls" format="2">
  <advance width="626"/>
  <unicode hex="00DF"/>
  <outline>
    <contour>
      <point x="392" y="-12" type="curve" smooth="yes"/>
      <point x="344" y="-12"/>
      <point x="287" y="-2"/>
      <point x="255" y="11" type="curve"/>
      <point x="274" y="160" type="line"/>
      <point x="300" y="147"/>
      <point x="340" y="138"/>
      <point x="368" y="138" type="curve" smooth="yes"/>
      <point x="414" y="138"/>
      <point x="442" y="165"/>
      <point x="442" y="205" type="curve" smooth="yes"/>
      <point x="442" y="293"/>
      <point x="302" y="295"/>
      <point x="302" y="377" type="curve" smooth="yes"/>
      <point x="302" y="437"/>
      <point x="376" y="470"/>
      <point x="376" y="550" type="curve" smooth="yes"/>
      <point x="376" y="599"/>
      <point x="350" y="626"/>
      <point x="302" y="626" type="curve" smooth="yes"/>
      <point x="249" y="626"/>
      <point x="224" y="595"/>
      <point x="224" y="528" type="curve" smooth="yes"/>
      <point x="226" y="-2" type="line"/>
      <point x="31" y="-2" type="line"/>
      <point x="30" y="519" type="line" smooth="yes"/>
      <point x="30" y="704"/>
      <point x="126" y="799"/>
      <point x="302" y="799" type="curve" smooth="yes"/>
      <point x="452" y="799"/>
      <point x="578" y="722"/>
      <point x="578" y="592" type="curve" smooth="yes"/>
      <point x="578" y="476"/>
      <point x="504" y="444"/>
      <point x="504" y="400" type="curve" smooth="yes"/>
      <point x="504" y="340"/>
      <point x="644" y="343"/>
      <point x="644" y="200" type="curve" smooth="yes"/>
      <point x="644" y="82"/>
      <point x="515" y="-12"/>
    </contour>
  </outline>
</glyph>
<glyph name="icircumflex" format="2">
  <advance width="286"/>
  <unicode hex="00EE"/>
  <outline>
    <contour>
      <point x="49" y="460" type="line"/>
      <point x="236" y="460" type="line"/>
      <point x="236" y="0" type="line"/>
      <point x="49" y="0" type="line"/>
    </contour>
    <contour>
      <point x="142" y="611" type="line"/>
      <point x="62" y="531" type="line"/>
      <point x="-78" y="621" type="line"/>
      <point x="142" y="761" type="line"/>
      <point x="362" y="621" type="line"/>
      <point x="222" y="531" type="line"/>
    </contour>
  </outline>
</glyph>
<glyph name="eth" format="2">
  <advance width="657"/>
  <unicode hex="00F0"/>
  <outline>
    <contour>
      <point x="324" y="-20" type="curve" smooth="yes"/>
      <point x="164" y="-20"/>
      <point x="50" y="94"/>
      <point x="50" y="255" type="curve" smooth="yes"/>
      <point x="50" y="393"/>
      <point x="134" y="483"/>
      <point x="263" y="483" type="curve" smooth="yes"/>
      <point x="363" y="483"/>
      <point x="445" y="428"/>
      <point x="507" y="318" type="curve"/>
      <point x="466" y="320" type="line"/>
      <point x="382" y="472"/>
      <point x="267" y="595"/>
      <point x="118" y="695" type="curve"/>
      <point x="269" y="782" type="line"/>
      <point x="487" y="597"/>
      <point x="608" y="409"/>
      <point x="608" y="255" type="curve" smooth="yes"/>
      <point x="608" y="98"/>
      <point x="486" y="-20"/>
    </contour>
    <contour>
      <point x="328" y="145" type="curve" smooth="yes"/>
      <point x="374" y="145"/>
      <point x="405" y="180"/>
      <point x="405" y="230" type="curve" smooth="yes"/>
      <point x="405" y="280"/>
      <point x="373" y="316"/>
      <point x="328" y="316" type="curve" smooth="yes"/>
      <point x="283" y="316"/>
      <point x="251" y="280"/>
      <point x="251" y="230" type="curve" smooth="yes"/>
      <point x="251" y="180"/>
      <point x="282" y="145"/>
    </contour>
    <contour>
      <point x="140" y="509" type="line"/>
      <point x="124" y="569" type="line"/>
      <point x="514" y="684" type="line"/>
      <point x="530" y="624" type="line"/>
    </contour>
  </outline>
</glyph>
<glyph name="ocircumflex" format="2">
  <advance width="616"/>
  <unicode hex="00F4"/>
  <outline>
    <contour>
      <point x="30" y="230" type="curve" smooth="yes"/>
      <point x="30" y="379"/>
      <point x="148" y="471"/>
      <point x="308" y="471" type="curve" smooth="yes"/>
      <point x="468" y="471"/>
      <point x="586" y="379"/>
      <point x="586" y="230" type="curve" smooth="yes"/>
      <point x="586" y="81"/>
      <point x="468" y="-10"/>
      <point x="308" y="-10" type="curve" smooth="yes"/>
      <point x="148" y="-10"/>
      <point x="30" y="81"/>
    </contour>
    <contour>
      <point x="231" y="230" type="curve" smooth="yes"/>
      <point x="231" y="174"/>
      <point x="268" y="145"/>
      <point x="308" y="145" type="curve" smooth="yes"/>
      <point x="348" y="145"/>
      <point x="385" y="174"/>
      <point x="385" y="230" type="curve" smooth="yes"/>
      <point x="385" y="286"/>
      <point x="348" y="316"/>
      <point x="308" y="316" type="curve" smooth="yes"/>
      <point x="268" y="316"/>
      <point x="231" y="286"/>
    </contour>
    <contour>
      <point x="308" y="611" type="line"/>
      <point x="228" y="531" type="line"/>
      <point x="88" y="621" type="line"/>
      <point x="308" y="761" type="line"/>
      <point x="528" y="621" type="line"/>
      <point x="388" y="531" type="line"/>
    </contour>
  </outline>
</glyph>
<glyph name="ydieresis" format="2">
  <advance width="570"/>
  <unicode hex="00FF"/>
  <outline>
    <contour>
      <point x="585" y="460" type="line"/>
      <point x="285" y="-220" type="line"/>
      <point x="95" y="-220" type="line"/>
      <point x="198" y="20" type="line"/>
      <point x="-15" y="460" type="line"/>
      <point x="195" y="460" type="line"/>
      <point x="345" y="85" type="line"/>
      <point x="240" y="85" type="line"/>
      <point x="390" y="460" type="line"/>
    </contour>
    <contour>
      <point x="312" y="629" type="curve" smooth="yes"/>
      <point x="312" y="688"/>
      <point x="360" y="727"/>
      <point x="420" y="727" type="curve" smooth="yes"/>
      <point x="480" y="727"/>
      <point x="528" y="688"/>
      <point x="528" y="629" type="curve" smooth="yes"/>
      <point x="528" y="570"/>
      <point x="480" y="531"/>
      <point x="420" y="531" type="curve" smooth="yes"/>
      <point x="360" y="531"/>
      <point x="312" y="570"/>
    </contour>
    <contour>
      <point x="42" y="629" type="curve" smooth="yes"/>
      <point x="42" y="688"/>
      <point x="90" y="727"/>
      <point x="150" y="727" type="curve" smooth="yes"/>
      <point x="210" y="727"/>
      <point x="258" y="688"/>
      <point x="258" y="629" type="curve" smooth="yes"/>
      <point x="258" y="570"/>
      <point x="210" y="531"/>
      <point x="150" y="531" type="curve" smooth="yes"/>
      <point x="90" y="531"/>
      <point x="42" y="570"/>
    </contour>
  </outline>
</glyph>
<glyph name="Eogonek" format="2">
  <advance width="635"/>
  <unicode hex="0118"/>
  <outline>
    <contour>
      <point x="222" y="0" type="line"/>
      <point x="222" y="175" type="line"/>
      <point x="575" y="175" type="line"/>
      <point x="575" y="0" type="line"/>
    </contour>
    <contour>
      <point x="222" y="525" type="line"/>
      <point x="222" y="700" type="line"/>
      <point x="575" y="700" type="line"/>
      <point x="575" y="525" type="line"/>
    </contour>
    <contour>
      <point x="222" y="275" type="line"/>
      <point x="222" y="445" type="line"/>
      <point x="555" y="445" type="line"/>
      <point x="555" y="275" type="line"/>
    </contour>
    <contour>
      <point x="70" y="700" type="line"/>
      <point x="280" y="700" type="line"/>
      <point x="280" y="0" type="line"/>
      <point x="70" y="0" type="line"/>
    </contour>
    <contour>
      <point x="420" y="-100" type="curve"/>
      <point x="453" y="-180" type="line"/>
      <point x="438" y="-200"/>
      <point x="408" y="-220"/>
      <point x="345" y="-220" type="curve" smooth="yes"/>
      <point x="291" y="-220"/>
      <point x="232" y="-189"/>
      <point x="232" y="-120" type="curve" smooth="yes"/>
      <point x="232" y="-51"/>
      <point x="304" y="-11"/>
      <point x="374" y="25" type="curve"/>
      <point x="415" y="0" type="line"/>
      <point x="363" y="-32"/>
      <point x="342" y="-63"/>
      <point x="342" y="-90" type="curve" smooth="yes"/>
      <point x="342" y="-108"/>
      <point x="350" y="-120"/>
      <point x="370" y="-120" type="curve" smooth="yes"/>
      <point x="386" y="-120"/>
      <point x="406" y="-113"/>
    </contour>
  </outline>
</glyph>
<glyph name="eogonek" format="2">
  <advance width="609"/>
  <unicode hex="0119"/>
  <outline>
    <contour>
      <point x="136" y="190" type="line"/>
      <point x="136" y="284" type="line"/>
      <point x="367.382" y="284" type="line"/>
      <point x="360.964" y="329.27"/>
      <point x="342.042" y="350"/>
      <point x="303" y="350" type="curve" smooth="yes"/>
      <point x="253" y="350"/>
      <point x="228" y="316"/>
      <point x="228" y="250" type="curve"/>
      <point x="226" y="230" type="line"/>
      <point x="226" y="144"/>
      <point x="268" y="120"/>
      <point x="308" y="120" type="curve" smooth="yes"/>
      <point x="355" y="120"/>
      <point x="388" y="135"/>
      <point x="404" y="165" type="curve"/>
      <point x="582" y="137" type="line"/>
      <point x="508.0" y="62.0"/>
      <point x="457" y="-10"/>
      <point x="318" y="-10" type="curve" smooth="yes"/>
      <point x="123" y="-10"/>
      <point x="30" y="91"/>
      <point x="30" y="230" type="curve" smooth="yes"/>
      <point x="30" y="247"/>
      <point x="31" y="263"/>
      <point x="34" y="279" type="curve" smooth="yes"/>
      <point x="53" y="392"/>
      <point x="139" y="470"/>
      <point x="308" y="470" type="curve" smooth="yes"/>
      <point x="488" y="470"/>
      <point x="575" y="384"/>
      <point x="575" y="239" type="curve" smooth="yes"/>
      <point x="575" y="231"/>
      <point x="575" y="211"/>
      <point x="573" y="190" type="curve"/>
    </contour>
    <contour>
      <point x="563.0" y="-15.0" type="curve"/>
      <point x="596.0" y="-95.0" type="line"/>
      <point x="581.0" y="-115.0"/>
      <point x="551.0" y="-135.0"/>
      <point x="488.0" y="-135.0" type="curve" smooth="yes"/>
      <point x="434.0" y="-135.0"/>
      <point x="375.0" y="-104.0"/>
      <point x="375.0" y="-35.0" type="curve" smooth="yes"/>
      <point x="375.0" y="34.0"/>
      <point x="447.0" y="73.99999"/>
      <point x="517.0" y="110.0" type="curve"/>
      <point x="581.0" y="137.0" type="line"/>
      <point x="510.0" y="51.0"/>
      <point x="485.0" y="22.0"/>
      <point x="485.0" y="-5.0" type="curve" smooth="yes"/>
      <point x="485.0" y="-23.0"/>
      <point x="493.0" y="-35.0"/>
      <point x="513.0" y="-35.0" type="curve" smooth="yes"/>
      <point x="529.0" y="-35.0"/>
      <point x="549.0" y="-28.0"/>
    </contour>
  </outline>
</glyph>
<glyph name="uni0122" format="2">
  <advance width="838"/>
  <unicode hex="0122"/>
  <outline>
    <contour>
      <point x="430" y="240" type="line"/>
      <point x="430" y="400" type="line"/>
      <point x="802" y="400" type="line"/>
      <point x="822" y="161"/>
      <point x="684" y="-30"/>
      <point x="430" y="-30" type="curve" smooth="yes"/>
      <point x="196" y="-30"/>
      <point x="30" y="121"/>
      <point x="30" y="350" type="curve" smooth="yes"/>
      <point x="30" y="579"/>
      <point x="206" y="720"/>
      <point x="440" y="720" type="curve" smooth="yes"/>
      <point x="599" y="720"/>
      <point x="701" y="641"/>
      <point x="771" y="544" type="curve"/>
      <point x="566" y="452" type="line"/>
      <point x="542" y="496"/>
      <point x="507" y="535"/>
      <point x="440" y="535" type="curve" smooth="yes"/>
      <point x="342" y="535"/>
      <point x="260" y="473"/>
      <point x="260" y="350" type="curve" smooth="yes"/>
      <point x="260" y="227"/>
      <point x="332" y="155"/>
      <point x="440" y="155" type="curve" smooth="yes"/>
      <point x="520.624" y="155"/>
      <point x="564.45" y="188.237"/>
      <point x="587.644" y="240" type="curve"/>
    </contour>
    <contour>
      <point x="326.5" y="-90" type="line"/>
      <point x="521.5" y="-124" type="line"/>
      <point x="386.5" y="-374" type="line"/>
      <point x="238.5" y="-349" type="line"/>
    </contour>
  </outline>
</glyph>
<glyph name="ibreve" format="2">
  <advance width="286"/>
  <unicode hex="012D"/>
  <outline>
    <contour>
      <point x="49" y="460" type="line"/>
      <point x="236" y="460" type="line"/>
      <point x="236" y="0" type="line"/>
      <point x="49" y="0" type="line"/>
    </contour>
    <contour>
      <point x="-26" y="681" type="curve"/>
      <point x="90" y="681" type="line"/>
      <point x="90" y="640"/>
      <point x="122" y="631"/>
      <point x="142" y="631" type="curve" smooth="yes"/>
      <point x="162" y="631"/>
      <point x="194" y="640"/>
      <point x="194" y="681" type="curve"/>
      <point x="310" y="681" type="line"/>
      <point x="310" y="592"/>
      <point x="247" y="531"/>
      <point x="142" y="531" type="curve" smooth="yes"/>
      <point x="37" y="531"/>
      <point x="-26" y="592"/>
    </contour>
  </outline>
</glyph>
<glyph name="uni0136" format="2">
  <advance width="781"/>
  <unicode hex="0136"/>
  <outline>
    <contour>
      <point x="70" y="700" type="line"/>
      <point x="300" y="700" type="line"/>
      <point x="300" y="0" type="line"/>
      <point x="70" y="0" type="line"/>
    </contour>
    <contour>
      <point x="515" y="700" type="line"/>
      <point x="771" y="700" type="line"/>
      <point x="498" y="372" type="line"/>
      <point x="786" y="0" type="line"/>
      <point x="520" y="0" type="line"/>
      <point x="237" y="365" type="line"/>
    </contour>
    <contour>
      <point x="334" y="-60" type="line"/>
      <point x="530" y="-94" type="line"/>
      <point x="394" y="-344" type="line"/>
      <point x="246" y="-319" type="line"/>
    </contour>
  </outline>
</glyph>
<glyph name="uni0137" format="2">
  <advance width="660"/>
  <unicode hex="0137"/>
  <outline>
    <contour>
      <point x="50" y="780" type="line"/>
      <point x="235" y="780" type="line"/>
      <point x="235" y="0" type="line"/>
      <point x="50" y="0" type="line"/>
    </contour>
    <contour>
      <point x="401" y="460" type="line"/>
      <point x="630" y="460" type="line"/>
      <point x="435" y="270" type="line"/>
      <point x="650" y="0" type="line"/>
      <point x="425" y="0" type="line"/>
      <point x="206" y="270" type="line"/>
    </contour>
    <contour>
      <point x="256" y="-60" type="line"/>
      <point x="452" y="-94" type="line"/>
      <point x="316" y="-344" type="line"/>
      <point x="168" y="-319" type="line"/>
    </contour>
  </outline>
</glyph>
<glyph name="kgreenlandic" format="2">
  <advance width="660"/>
  <unicode hex="0138"/>
  <outline>
    <contour>
      <point x="50" y="460" type="line"/>
      <point x="235" y="460" type="line"/>
      <point x="235" y="0" type="line"/>
      <point x="50" y="0" type="line"/>
    </contour>
    <contour>
      <point x="401" y="460" type="line"/>
      <point x="630" y="460" type="line"/>
      <point x="435" y="270" type="line"/>
      <point x="650" y="0" type="line"/>
      <point x="425" y="0" type="line"/>
      <point x="206" y="270" type="line"/>
    </contour>
  </outline>
</glyph>
<glyph name="lacute" format="2">
  <advance width="295"/>
  <unicode hex="013A"/>
  <outline>
    <contour>
      <point x="50" y="780" type="line"/>
      <point x="245" y="780" type="line"/>
      <point x="245" y="0" type="line"/>
      <point x="50" y="0" type="line"/>
    </contour>
    <contour>
      <point x="328" y="990" type="line"/>
      <point x="148" y="840" type="line"/>
      <point x="38" y="890" type="line"/>
      <point x="188" y="1050" type="line"/>
    </contour>
  </outline>
</glyph>
<glyph name="Lcaron" format="2">
  <advance width="575"/>
  <unicode hex="013D"/>
  <outline>
    <contour>
      <point x="70" y="700" type="line"/>
      <point x="290" y="700" type="line"/>
      <point x="290" y="185" type="line"/>
      <point x="575" y="185" type="line"/>
      <point x="575" y="0" type="line"/>
      <point x="70" y="0" type="line"/>
    </contour>
    <contour>
      <point x="463" y="720" type="line"/>
      <point x="658" y="686" type="line"/>
      <point x="523" y="436" type="line"/>
      <point x="375" y="461" type="line"/>
    </contour>
  </outline>
</glyph>
<glyph name="Nacute" format="2">
  <advance width="805"/>
  <unicode hex="0143"/>
  <outline>
    <contour>
      <point x="525" y="700" type="line"/>
      <point x="735" y="700" type="line"/>
      <point x="735" y="-35" type="line"/>
      <point x="280" y="316.591" type="line"/>
      <point x="280" y="0" type="line"/>
      <point x="70" y="0" type="line"/>
      <point x="70" y="735" type="line"/>
      <point x="525" y="383.409" type="line"/>
    </contour>
    <contour>
      <point x="540" y="915" type="line"/>
      <point x="360" y="765" type="line"/>
      <point x="250" y="815" type="line"/>
      <point x="400" y="975" type="line"/>
    </contour>
  </outline>
</glyph>
<glyph name="uni0145" format="2">
  <advance width="805"/>
  <unicode hex="0145"/>
  <outline>
    <contour>
      <point x="342" y="-65" type="line"/>
      <point x="536" y="-99" type="line"/>
      <point x="402" y="-349" type="line"/>
      <point x="254" y="-324" type="line"/>
    </contour>
    <contour>
      <point x="525" y="700" type="line"/>
      <point x="735" y="700" type="line"/>
      <point x="735" y="-35" type="line"/>
      <point x="280" y="316.591" type="line"/>
      <point x="280" y="0" type="line"/>
      <point x="70" y="0" type="line"/>
      <point x="70" y="735" type="line"/>
      <point x="525" y="383.409" type="line"/>
    </contour>
  </outline>
</glyph>
<glyph name="Eng" format="2">
  <advance width="805"/>
  <unicode hex="014A"/>
  <outline>
    <contour>
      <point x="537" y="-212" type="curve" smooth="yes"/>
      <point x="479" y="-212"/>
      <point x="438" y="-197"/>
      <point x="386" y="-155" type="curve"/>
      <point x="457" y="-17" type="line"/>
      <point x="473" y="-35"/>
      <point x="485" y="-42"/>
      <point x="502" y="-42" type="curve" smooth="yes"/>
      <point x="532" y="-42"/>
      <point x="550" y="-21"/>
      <point x="550" y="13" type="curve" smooth="yes"/>
      <point x="550" y="108" type="line"/>
      <point x="280" y="316" type="line"/>
      <point x="280" y="0" type="line"/>
      <point x="70" y="0" type="line"/>
      <point x="70" y="735" type="line"/>
      <point x="525" y="384" type="line"/>
      <point x="525" y="700" type="line"/>
      <point x="735" y="700" type="line"/>
      <point x="735" y="-42" type="line" smooth="yes"/>
      <point x="735" y="-146"/>
      <point x="659" y="-212"/>
    </contour>
  </outline>
</glyph>
<glyph name="eng" format="2">
  <advance width="605"/>
  <unicode hex="014B"/>
  <outline>
    <contour>
      <point x="337" y="-250" type="curve" smooth="yes"/>
      <point x="281" y="-250"/>
      <point x="236" y="-233"/>
      <point x="186" y="-193" type="curve"/>
      <point x="257" y="-55" type="line"/>
      <point x="273" y="-73"/>
      <point x="286" y="-80"/>
      <point x="302" y="-80" type="curve" smooth="yes"/>
      <point x="332" y="-80"/>
      <point x="350" y="-60"/>
      <point x="350" y="-25" type="curve" smooth="yes"/>
      <point x="350" y="280" type="line" smooth="yes"/>
      <point x="350" y="328"/>
      <point x="337" y="346"/>
      <point x="302" y="346" type="curve" smooth="yes"/>
      <point x="264" y="346"/>
      <point x="245" y="323"/>
      <point x="245" y="275" type="curve" smooth="yes"/>
      <point x="245" y="0" type="line"/>
      <point x="50" y="0" type="line"/>
      <point x="50" y="460" type="line"/>
      <point x="245" y="460" type="line"/>
      <point x="245" y="394" type="line"/>
      <point x="273" y="444"/>
      <point x="321" y="471"/>
      <point x="387" y="471" type="curve" smooth="yes"/>
      <point x="503" y="471"/>
      <point x="555" y="418"/>
      <point x="555" y="300" type="curve" smooth="yes"/>
      <point x="555" y="-80" type="line" smooth="yes"/>
      <point x="555" y="-187"/>
      <point x="474" y="-250"/>
    </contour>
  </outline>
</glyph>
<glyph name="uni0157" format="2">
  <advance width="453"/>
  <unicode hex="0157"/>
  <outline>
    <contour>
      <point x="240" y="460" type="line"/>
      <point x="240" y="0" type="line"/>
      <point x="50" y="0" type="line"/>
      <point x="50" y="460" type="line"/>
    </contour>
    <contour>
      <point x="369" y="262" type="line"/>
      <point x="357" y="278"/>
      <point x="338" y="290"/>
      <point x="312" y="290" type="curve" smooth="yes"/>
      <point x="277" y="290"/>
      <point x="240" y="261"/>
      <point x="240" y="195" type="curve"/>
      <point x="204" y="280" type="line"/>
      <point x="204" y="389"/>
      <point x="282" y="472"/>
      <point x="367" y="472" type="curve" smooth="yes"/>
      <point x="400" y="472"/>
      <point x="436" y="452"/>
      <point x="448" y="430" type="curve"/>
    </contour>
    <contour>
      <point x="92" y="-60" type="line"/>
      <point x="286" y="-94" type="line"/>
      <point x="152" y="-344" type="line"/>
      <point x="4" y="-319" type="line"/>
    </contour>
  </outline>
</glyph>
<glyph name="Ubreve" format="2">
  <advance width="746"/>
  <unicode hex="016C"/>
  <outline>
    <contour>
      <point x="65" y="700" type="line"/>
      <point x="285" y="700" type="line"/>
      <point x="285" y="250" type="line" smooth="yes"/>
      <point x="285" y="194"/>
      <point x="313" y="155"/>
      <point x="373" y="155" type="curve" smooth="yes"/>
      <point x="433" y="155"/>
      <point x="461" y="194"/>
      <point x="461" y="250" type="curve" smooth="yes"/>
      <point x="461" y="700" type="line"/>
      <point x="681" y="700" type="line"/>
      <point x="681" y="230" type="line" smooth="yes"/>
      <point x="681" y="31"/>
      <point x="538" y="-40"/>
      <point x="373" y="-40" type="curve" smooth="yes"/>
      <point x="208" y="-40"/>
      <point x="65" y="31"/>
      <point x="65" y="230" type="curve" smooth="yes"/>
    </contour>
    <contour>
      <point x="205" y="930" type="curve"/>
      <point x="321" y="930" type="line"/>
      <point x="321" y="889"/>
      <point x="353" y="880"/>
      <point x="373" y="880" type="curve" smooth="yes"/>
      <point x="393" y="880"/>
      <point x="425" y="889"/>
      <point x="425" y="930" type="curve"/>
      <point x="541" y="930" type="line"/>
      <point x="541" y="841"/>
      <point x="478" y="780"/>
      <point x="373" y="780" type="curve" smooth="yes"/>
      <point x="268" y="780"/>
      <point x="205" y="841"/>
    </contour>
  </outline>
</glyph>
<glyph name="ubreve" format="2">
  <advance width="605"/>
  <unicode hex="016D"/>
  <outline>
    <contour>
      <point x="360" y="0" type="line"/>
      <point x="360" y="460" type="line"/>
      <point x="555" y="460" type="line"/>
      <point x="555" y="0" type="line"/>
    </contour>
    <contour>
      <point x="255" y="180" type="line" smooth="yes"/>
      <point x="255" y="139"/>
      <point x="263" y="114"/>
      <point x="303" y="114" type="curve" smooth="yes"/>
      <point x="338" y="114"/>
      <point x="360" y="134"/>
      <point x="360" y="180" type="curve"/>
      <point x="386" y="190" type="line"/>
      <point x="386" y="81"/>
      <point x="343" y="-11"/>
      <point x="218" y="-11" type="curve" smooth="yes"/>
      <point x="93" y="-11"/>
      <point x="50" y="51"/>
      <point x="50" y="160" type="curve" smooth="yes"/>
      <point x="50" y="460" type="line"/>
      <point x="255" y="460" type="line"/>
    </contour>
    <contour>
      <point x="134.5" y="681" type="curve"/>
      <point x="250.5" y="681" type="line"/>
      <point x="250.5" y="640"/>
      <point x="282.5" y="631"/>
      <point x="302.5" y="631" type="curve" smooth="yes"/>
      <point x="322.5" y="631"/>
      <point x="354.5" y="640"/>
      <point x="354.5" y="681" type="curve"/>
      <point x="470.5" y="681" type="line"/>
      <point x="470.5" y="592"/>
      <point x="407.5" y="531"/>
      <point x="302.5" y="531" type="curve" smooth="yes"/>
      <point x="197.5" y="531"/>
      <point x="134.5" y="592"/>
    </contour>
  </outline>
</glyph>
<glyph name="Zacute" format="2">
  <advance width="665"/>
  <unicode hex="0179"/>
  <outline>
    <contour>
      <point x="70" y="505" type="line"/>
      <point x="70" y="700" type="line"/>
      <point x="655" y="700" type="line"/>
      <point x="347" y="185" type="line"/>
      <point x="610" y="185" type="line"/>
      <point x="610" y="0" type="line"/>
      <point x="5" y="0" type="line"/>
      <point x="306" y="505" type="line"/>
    </contour>
    <contour>
      <point x="542" y="930" type="line"/>
      <point x="362" y="780" type="line"/>
      <point x="252" y="830" type="line"/>
      <point x="402" y="990" type="line"/>
    </contour>
  </outline>
</glyph>
<glyph name="florin" format="2">
  <advance width="600"/>
  <unicode hex="0192"/>
  <outline>
    <contour>
      <point x="186" y="-200" type="curve" smooth="yes"/>
      <point x="135" y="-200"/>
      <point x="93" y="-183"/>
      <point x="34" y="-141" type="curve"/>
      <point x="102" y="-7" type="line"/>
      <point x="120" y="-25"/>
      <point x="134" y="-32"/>
      <point x="148" y="-32" type="curve" smooth="yes"/>
      <point x="173" y="-32"/>
      <point x="192" y="-9"/>
      <point x="194" y="25" type="curve" smooth="yes"/>
      <point x="210" y="305" type="line"/>
      <point x="138" y="305" type="line"/>
      <point x="149" y="460" type="line"/>
      <point x="218" y="460" type="line"/>
      <point x="226" y="631" type="line" smooth="yes"/>
      <point x="234" y="733"/>
      <point x="311" y="800"/>
      <point x="417" y="799" type="curve" smooth="yes"/>
      <point x="468" y="799"/>
      <point x="509" y="782"/>
      <point x="568" y="740" type="curve"/>
      <point x="501" y="606" type="line"/>
      <point x="483" y="624"/>
      <point x="468" y="631"/>
      <point x="454" y="631" type="curve" smooth="yes"/>
      <point x="429" y="631"/>
      <point x="412" y="608"/>
      <point x="410" y="574" type="curve" smooth="yes"/>
      <point x="402" y="460" type="line"/>
      <point x="499" y="460" type="line"/>
      <point x="490" y="305" type="line"/>
      <point x="394" y="305" type="line"/>
      <point x="377" y="-32" type="line" smooth="yes"/>
      <point x="373" y="-132"/>
      <point x="294" y="-201"/>
    </contour>
  </outline>
</glyph>
<glyph name="uni0213" format="2">
  <advance width="453"/>
  <unicode hex="0213"/>
  <outline>
    <contour>
      <point x="240" y="460" type="line"/>
      <point x="240" y="0" type="line"/>
      <point x="50" y="0" type="line"/>
      <point x="50" y="460" type="line"/>
    </contour>
    <contour>
      <point x="369" y="262" type="line"/>
      <point x="357" y="278"/>
      <point x="338" y="290"/>
      <point x="312" y="290" type="curve" smooth="yes"/>
      <point x="277" y="290"/>
      <point x="240" y="261"/>
      <point x="240" y="195" type="curve"/>
      <point x="204" y="280" type="line"/>
      <point x="204" y="389"/>
      <point x="282" y="472"/>
      <point x="367" y="472" type="curve" smooth="yes"/>
      <point x="400" y="472"/>
      <point x="436" y="452"/>
      <point x="448" y="430" type="curve"/>
    </contour>
    <contour>
      <point x="81" y="532" type="curve"/>
      <point x="197" y="532" type="line"/>
      <point x="197" y="573"/>
      <point x="229" y="582"/>
      <point x="249" y="582" type="curve" smooth="yes"/>
      <point x="269" y="582"/>
      <point x="301" y="573"/>
      <point x="301" y="532" type="curve"/>
      <point x="417" y="532" type="line"/>
      <point x="417" y="621"/>
      <point x="354" y="682"/>
      <point x="249" y="682" type="curve" smooth="yes"/>
      <point x="144" y="682"/>
      <point x="81" y="621"/>
    </contour>
  </outline>
</glyph>
<glyph name="uni021B" format="2">
  <advance width="365"/>
  <unicode hex="021B"/>
  <outline>
    <contour>
      <point x="5" y="460" type="line"/>
      <point x="360" y="460" type="line"/>
      <point x="360" y="305" type="line"/>
      <point x="5" y="305" type="line"/>
    </contour>
    <contour>
      <point x="90" y="620" type="line"/>
      <point x="275" y="620" type="line"/>
      <point x="275" y="0" type="line"/>
      <point x="90" y="0" type="line"/>
    </contour>
    <contour>
      <point x="129" y="-60" type="line"/>
      <point x="324" y="-94" type="line"/>
      <point x="189" y="-344" type="line"/>
      <point x="41" y="-319" type="line"/>
    </contour>
  </outline>
</glyph>
<glyph name="uni0237" format="2">
  <advance width="285"/>
  <unicode hex="0237"/>
  <outline>
    <contour>
      <point x="-43" y="-55" type="line"/>
      <point x="-30" y="-70"/>
      <point x="-17" y="-80"/>
      <point x="2" y="-80" type="curve" smooth="yes"/>
      <point x="32" y="-80"/>
      <point x="50" y="-61"/>
      <point x="50" y="-25" type="curve" smooth="yes"/>
      <point x="50" y="460" type="line"/>
      <point x="235" y="460" type="line"/>
      <point x="235" y="-80" type="line" smooth="yes"/>
      <point x="235" y="-179"/>
      <point x="171" y="-250"/>
      <point x="37" y="-250" type="curve" smooth="yes"/>
      <point x="-46" y="-250"/>
      <point x="-89" y="-213"/>
      <point x="-114" y="-193" type="curve"/>
    </contour>
  </outline>
</glyph>
<glyph name="dotaccent" format="2">
  <advance width="300"/>
  <unicode hex="02D9"/>
  <outline>
    <contour>
      <point x="42" y="827" type="curve" smooth="yes"/>
      <point x="42" y="886"/>
      <point x="90" y="925"/>
      <point x="150" y="925" type="curve" smooth="yes"/>
      <point x="210" y="925"/>
      <point x="258" y="886"/>
      <point x="258" y="827" type="curve" smooth="yes"/>
      <point x="258" y="768"/>
      <point x="210" y="729"/>
      <point x="150" y="729" type="curve" smooth="yes"/>
      <point x="90" y="729"/>
      <point x="42" y="768"/>
    </contour>
  </outline>
</glyph>
<glyph name="tilde" format="2">
  <advance width="530"/>
  <unicode hex="02DC"/>
  <outline>
    <contour>
      <point x="60" y="645" type="line"/>
      <point x="70" y="694"/>
      <point x="114" y="747"/>
      <point x="189" y="747" type="curve" smooth="yes"/>
      <point x="256" y="747"/>
      <point x="275" y="692"/>
      <point x="333" y="692" type="curve" smooth="yes"/>
      <point x="362" y="692"/>
      <point x="384" y="716"/>
      <point x="404" y="748" type="curve"/>
      <point x="490" y="655" type="line"/>
      <point x="474" y="618"/>
      <point x="409" y="562"/>
      <point x="339" y="562" type="curve" smooth="yes"/>
      <point x="284" y="562"/>
      <point x="240" y="619"/>
      <point x="188" y="619" type="curve" smooth="yes"/>
      <point x="152" y="619"/>
      <point x="143" y="583"/>
      <point x="143" y="568" type="curve"/>
    </contour>
  </outline>
</glyph>
<glyph name="gravecomb" format="2">
  <unicode hex="0300"/>
  <outline>
    <contour>
      <point x="180" y="530" type="line"/>
      <point x="0" y="680" type="line"/>
      <point x="140" y="740" type="line"/>
      <point x="290" y="580" type="line"/>
    </contour>
  </outline>
</glyph>
<glyph name="uni0306" format="2">
  <unicode hex="0306"/>
  <outline>
    <contour>
      <point x="168" y="550" type="curve" smooth="yes"/>
      <point x="66" y="550"/>
      <point x="0" y="608"/>
      <point x="0" y="700" type="curve"/>
      <point x="143" y="700" type="line"/>
      <point x="143" y="670"/>
      <point x="153" y="650"/>
      <point x="168" y="650" type="curve" smooth="yes"/>
      <point x="183" y="650"/>
      <point x="193" y="670"/>
      <point x="193" y="700" type="curve"/>
      <point x="336" y="700" type="line"/>
      <point x="336" y="608"/>
      <point x="270" y="550"/>
    </contour>
  </outline>
</glyph>
<glyph name="uni0308" format="2">
  <unicode hex="0308"/>
  <outline>
    <contour>
      <point x="108" y="517" type="curve" smooth="yes"/>
      <point x="43" y="517"/>
      <point x="0" y="556"/>
      <point x="0" y="615" type="curve" smooth="yes"/>
      <point x="0" y="674"/>
      <point x="43" y="713"/>
      <point x="108" y="713" type="curve" smooth="yes"/>
      <point x="173" y="713"/>
      <point x="216" y="674"/>
      <point x="216" y="615" type="curve" smooth="yes"/>
      <point x="216" y="556"/>
      <point x="173" y="517"/>
    </contour>
    <contour>
      <point x="378" y="517" type="curve" smooth="yes"/>
      <point x="313" y="517"/>
      <point x="270" y="556"/>
      <point x="270" y="615" type="curve" smooth="yes"/>
      <point x="270" y="674"/>
      <point x="313" y="713"/>
      <point x="378" y="713" type="curve" smooth="yes"/>
      <point x="443" y="713"/>
      <point x="486" y="674"/>
      <point x="486" y="615" type="curve" smooth="yes"/>
      <point x="486" y="556"/>
      <point x="443" y="517"/>
    </contour>
  </outline>
</glyph>
<glyph name="uni030A" format="2">
  <unicode hex="030A"/>
  <outline>
    <contour>
      <point x="138" y="520" type="curve" smooth="yes"/>
      <point x="57" y="520"/>
      <point x="0" y="572"/>
      <point x="0" y="645" type="curve" smooth="yes"/>
      <point x="0" y="718"/>
      <point x="57" y="770"/>
      <point x="138" y="770" type="curve" smooth="yes"/>
      <point x="220" y="770"/>
      <point x="278" y="717"/>
      <point x="278" y="645" type="curve" smooth="yes"/>
      <point x="278" y="573"/>
      <point x="220" y="520"/>
    </contour>
    <contour>
      <point x="138" y="601" type="curve" smooth="yes"/>
      <point x="164" y="601"/>
      <point x="182" y="619"/>
      <point x="182" y="645" type="curve" smooth="yes"/>
      <point x="182" y="672"/>
      <point x="164" y="690"/>
      <point x="138" y="690" type="curve" smooth="yes"/>
      <point x="112" y="690"/>
      <point x="95" y="672"/>
      <point x="95" y="645" type="curve" smooth="yes"/>
      <point x="95" y="618"/>
      <point x="112" y="601"/>
    </contour>
  </outline>
</glyph>
<glyph name="uni030B" format="2">
  <unicode hex="030B"/>
  <outline>
    <contour>
      <point x="117" y="530" type="line"/>
      <point x="0" y="560" type="line"/>
      <point x="120" y="744" type="line"/>
      <point x="268" y="708" type="line"/>
    </contour>
    <contour>
      <point x="317" y="530" type="line"/>
      <point x="200" y="560" type="line"/>
      <point x="320" y="744" type="line"/>
      <point x="468" y="708" type="line"/>
    </contour>
  </outline>
</glyph>
<glyph name="uni0326" format="2">
  <unicode hex="0326"/>
  <outline>
    <contour>
      <point x="107" y="-198" type="line"/>
      <point x="0" y="-164" type="line"/>
      <point x="92" y="-22" type="line"/>
      <point x="232" y="-68" type="line"/>
    </contour>
  </outline>
</glyph>
<glyph name="uni0328" format="2">
  <unicode hex="0328"/>
  <outline>
    <contour>
      <point x="113" y="-220" type="curve" smooth="yes"/>
      <point x="59" y="-220"/>
      <point x="0" y="-189"/>
      <point x="0" y="-120" type="curve" smooth="yes"/>
      <point x="0" y="-51"/>
      <point x="72" y="-11"/>
      <point x="142" y="25" type="curve"/>
      <point x="183" y="0" type="line"/>
      <point x="131" y="-32"/>
      <point x="110" y="-63"/>
      <point x="110" y="-90" type="curve" smooth="yes"/>
      <point x="110" y="-108"/>
      <point x="118" y="-120"/>
      <point x="138" y="-120" type="curve" smooth="yes"/>
      <point x="154" y="-120"/>
      <point x="174" y="-113"/>
      <point x="188" y="-100" type="curve"/>
      <point x="221" y="-180" type="line"/>
      <point x="206" y="-200"/>
      <point x="176" y="-220"/>
    </contour>
  </outline>
</glyph>
<glyph name="uni0394" format="2">
  <advance width="600"/>
  <unicode hex="0394"/>
  <outline>
    <contour>
      <point x="18" y="0" type="line"/>
      <point x="581" y="0" type="line"/>
      <point x="300" y="800" type="line"/>
    </contour>
    <contour>
      <point x="216" y="139" type="line"/>
      <point x="300" y="432" type="line"/>
      <point x="383" y="139" type="line"/>
    </contour>
  </outline>
</glyph>
<glyph name="uni0400" format="2">
  <advance width="635"/>
  <unicode hex="0400"/>
  <outline>
    <contour>
      <point x="222" y="0" type="line"/>
      <point x="222" y="175" type="line"/>
      <point x="575" y="175" type="line"/>
      <point x="575" y="0" type="line"/>
    </contour>
    <contour>
      <point x="222" y="525" type="line"/>
      <point x="222" y="700" type="line"/>
      <point x="575" y="700" type="line"/>
      <point x="575" y="525" type="line"/>
    </contour>
    <contour>
      <point x="222" y="275" type="line"/>
      <point x="222" y="445" type="line"/>
      <point x="555" y="445" type="line"/>
      <point x="555" y="275" type="line"/>
    </contour>
    <contour>
      <point x="70" y="700" type="line"/>
      <point x="280" y="700" type="line"/>
      <point x="280" y="0" type="line"/>
      <point x="70" y="0" type="line"/>
    </contour>
    <contour>
      <point x="142.5" y="930" type="line"/>
      <point x="282.5" y="990" type="line"/>
      <point x="432.5" y="830" type="line"/>
      <point x="322.5" y="780" type="line"/>
    </contour>
  </outline>
</glyph>
<glyph name="uni0403" format="2">
  <advance width="550"/>
  <unicode hex="0403"/>
  <outline>
    <contour>
      <point x="80" y="700" type="line"/>
      <point x="540" y="700" type="line"/>
      <point x="540" y="505" type="line"/>
      <point x="300" y="505" type="line"/>
      <point x="300" y="0" type="line"/>
      <point x="80" y="0" type="line"/>
    </contour>
    <contour>
      <point x="490" y="930" type="line"/>
      <point x="310" y="780" type="line"/>
      <point x="200" y="830" type="line"/>
      <point x="350" y="990" type="line"/>
    </contour>
  </outline>
</glyph>
<glyph name="uni0416" format="2">
  <advance width="1200"/>
  <unicode hex="0416"/>
  <outline>
    <contour>
      <point x="265" y="700" type="line"/>
      <point x="546" y="370" type="line"/>
      <point x="250" y="0" type="line"/>
      <point x="-5" y="0" type="line"/>
      <point x="293" y="372" type="line"/>
      <point x="10" y="700" type="line"/>
    </contour>
    <contour>
      <point x="485" y="700" type="line"/>
      <point x="715" y="700" type="line"/>
      <point x="715" y="0" type="line"/>
      <point x="485" y="0" type="line"/>
    </contour>
    <contour>
      <point x="925" y="700" type="line"/>
      <point x="1190" y="700" type="line"/>
      <point x="907" y="372" type="line"/>
      <point x="1205" y="0" type="line"/>
      <point x="940" y="0" type="line"/>
      <point x="654" y="370" type="line"/>
    </contour>
  </outline>
</glyph>
<glyph name="uni0423" format="2">
  <advance width="650"/>
  <unicode hex="0423"/>
  <outline>
    <contour>
      <point x="665" y="700" type="line"/>
      <point x="336" y="0" type="line"/>
      <point x="116" y="0" type="line"/>
      <point x="213" y="217" type="line"/>
      <point x="-15" y="700" type="line"/>
      <point x="225" y="700" type="line"/>
      <point x="355" y="315" type="line"/>
      <point x="270" y="315" type="line"/>
      <point x="440" y="700" type="line"/>
    </contour>
  </outline>
</glyph>
<glyph name="uni0427" format="2">
  <advance width="780"/>
  <unicode hex="0427"/>
  <outline>
    <contour>
      <point x="320" y="185" type="line"/>
      <point x="400" y="380" type="line"/>
      <point x="537" y="380" type="line"/>
      <point x="537" y="185" type="line"/>
    </contour>
    <contour>
      <point x="470" y="700" type="line"/>
      <point x="700" y="700" type="line"/>
      <point x="700" y="0" type="line"/>
      <point x="470" y="0" type="line"/>
    </contour>
    <contour>
      <point x="295" y="700" type="line"/>
      <point x="295" y="473" type="line" smooth="yes"/>
      <point x="295" y="403"/>
      <point x="344" y="380"/>
      <point x="400" y="380" type="curve"/>
      <point x="320" y="185" type="line"/>
      <point x="161" y="185"/>
      <point x="70" y="303"/>
      <point x="70" y="438" type="curve" smooth="yes"/>
      <point x="70" y="700" type="line"/>
    </contour>
  </outline>
</glyph>
<glyph name="uni042A" format="2">
  <advance width="783"/>
  <unicode hex="042A"/>
  <outline>
    <contour>
      <point x="327" y="305" type="line"/>
      <point x="327" y="480" type="line"/>
      <point x="460" y="480" type="line" smooth="yes"/>
      <point x="665" y="480"/>
      <point x="753" y="389"/>
      <point x="753" y="240" type="curve" smooth="yes"/>
      <point x="753" y="91"/>
      <point x="665" y="0"/>
      <point x="460" y="0" type="curve" smooth="yes"/>
      <point x="327" y="0" type="line"/>
      <point x="327" y="175" type="line"/>
      <point x="460" y="175" type="line" smooth="yes"/>
      <point x="515" y="175"/>
      <point x="543" y="199"/>
      <point x="543" y="240" type="curve" smooth="yes"/>
      <point x="543" y="281"/>
      <point x="515" y="305"/>
      <point x="460" y="305" type="curve" smooth="yes"/>
    </contour>
    <contour>
      <point x="190" y="506" type="line"/>
      <point x="10" y="506" type="line"/>
      <point x="10" y="700" type="line"/>
      <point x="410" y="700" type="line"/>
      <point x="410" y="0" type="line"/>
      <point x="190" y="0" type="line"/>
    </contour>
  </outline>
</glyph>
<glyph name="uni042B" format="2">
  <advance width="995"/>
  <unicode hex="042B"/>
  <outline>
    <contour>
      <point x="700" y="700" type="line"/>
      <point x="925" y="700" type="line"/>
      <point x="925" y="0" type="line"/>
      <point x="700" y="0" type="line"/>
    </contour>
    <contour>
      <point x="70" y="700" type="line"/>
      <point x="290" y="700" type="line"/>
      <point x="290" y="0" type="line"/>
      <point x="70" y="0" type="line"/>
    </contour>
    <contour>
      <point x="212" y="305" type="line"/>
      <point x="212" y="480" type="line"/>
      <point x="345" y="480" type="line" smooth="yes"/>
      <point x="550" y="480"/>
      <point x="638" y="389"/>
      <point x="638" y="240" type="curve" smooth="yes"/>
      <point x="638" y="91"/>
      <point x="550" y="0"/>
      <point x="345" y="0" type="curve" smooth="yes"/>
      <point x="212" y="0" type="line"/>
      <point x="212" y="175" type="line"/>
      <point x="345" y="175" type="line" smooth="yes"/>
      <point x="400" y="175"/>
      <point x="428" y="199"/>
      <point x="428" y="240" type="curve" smooth="yes"/>
      <point x="428" y="281"/>
      <point x="400" y="305"/>
      <point x="345" y="305" type="curve" smooth="yes"/>
    </contour>
  </outline>
</glyph>
<glyph name="uni042E" format="2">
  <advance width="1210"/>
  <unicode hex="042E"/>
  <outline>
    <contour>
      <point x="117" y="265" type="line"/>
      <point x="117" y="460" type="line"/>
      <point x="527" y="460" type="line"/>
      <point x="527" y="265" type="line"/>
    </contour>
    <contour>
      <point x="70" y="700" type="line"/>
      <point x="290" y="700" type="line"/>
      <point x="290" y="0" type="line"/>
      <point x="70" y="0" type="line"/>
    </contour>
    <contour>
      <point x="633" y="350" type="curve" smooth="yes"/>
      <point x="633" y="247"/>
      <point x="692" y="178"/>
      <point x="790" y="178" type="curve" smooth="yes"/>
      <point x="888" y="178"/>
      <point x="947" y="247"/>
      <point x="947" y="350" type="curve" smooth="yes"/>
      <point x="947" y="453"/>
      <point x="893" y="522"/>
      <point x="790" y="522" type="curve" smooth="yes"/>
      <point x="692" y="522"/>
      <point x="633" y="453"/>
    </contour>
    <contour>
      <point x="400" y="350" type="curve" smooth="yes"/>
      <point x="400" y="574"/>
      <point x="571" y="720"/>
      <point x="790" y="720" type="curve" smooth="yes"/>
      <point x="1014" y="720"/>
      <point x="1180" y="574"/>
      <point x="1180" y="350" type="curve" smooth="yes"/>
      <point x="1180" y="126"/>
      <point x="1019" y="-30"/>
      <point x="790" y="-30" type="curve" smooth="yes"/>
      <point x="561" y="-30"/>
      <point x="400" y="126"/>
    </contour>
  </outline>
</glyph>
<glyph name="uni0433" format="2">
  <advance width="375"/>
  <unicode hex="0433"/>
  <outline>
    <contour>
      <point x="50" y="460" type="line"/>
      <point x="375" y="460" type="line"/>
      <point x="375" y="305" type="line"/>
      <point x="240" y="305" type="line"/>
      <point x="240" y="0" type="line"/>
      <point x="50" y="0" type="line"/>
    </contour>
  </outline>
</glyph>
<glyph name="uni0434" format="2">
  <advance width="735"/>
  <unicode hex="0434"/>
  <outline>
    <contour>
      <point x="365" y="252" type="line"/>
      <point x="270" y="30" type="line"/>
      <point x="90" y="80" type="line"/>
      <point x="365" y="495" type="line"/>
      <point x="640" y="80" type="line"/>
      <point x="460" y="30" type="line"/>
    </contour>
    <contour>
      <point x="510" y="0" type="line"/>
      <point x="225" y="0" type="line"/>
      <point x="225" y="-90" type="line"/>
      <point x="40" y="-90" type="line"/>
      <point x="40" y="145" type="line"/>
      <point x="690" y="145" type="line"/>
      <point x="690" y="-90" type="line"/>
      <point x="510" y="-90" type="line"/>
    </contour>
  </outline>
</glyph>
<glyph name="uni0440" format="2">
  <advance width="645"/>
  <unicode hex="0440"/>
  <outline>
    <contour>
      <point x="245" y="-220" type="line"/>
      <point x="50" y="-220" type="line"/>
      <point x="50" y="460" type="line"/>
      <point x="245" y="460" type="line"/>
    </contour>
    <contour>
      <point x="615" y="230" type="curve" smooth="yes"/>
      <point x="615" y="61"/>
      <point x="507" y="-20"/>
      <point x="402" y="-20" type="curve" smooth="yes"/>
      <point x="277" y="-20"/>
      <point x="209" y="81"/>
      <point x="209" y="230" type="curve" smooth="yes"/>
      <point x="209" y="379"/>
      <point x="277" y="480"/>
      <point x="402" y="480" type="curve" smooth="yes"/>
      <point x="507" y="480"/>
      <point x="615" y="399"/>
    </contour>
    <contour>
      <point x="409" y="230" type="curve" smooth="yes"/>
      <point x="409" y="281"/>
      <point x="372" y="310"/>
      <point x="327" y="310" type="curve" smooth="yes"/>
      <point x="287" y="310"/>
      <point x="245" y="286"/>
      <point x="245" y="230" type="curve" smooth="yes"/>
      <point x="245" y="174"/>
      <point x="287" y="150"/>
      <point x="327" y="150" type="curve" smooth="yes"/>
      <point x="372" y="150"/>
      <point x="409" y="179"/>
    </contour>
  </outline>
</glyph>
<glyph name="uni044F" format="2">
  <advance width="583"/>
  <unicode hex="044F"/>
  <outline>
    <contour>
      <point x="231" y="0" type="line"/>
      <point x="33" y="0" type="line"/>
      <point x="153" y="190" type="line"/>
      <point x="331" y="190" type="line"/>
    </contour>
    <contour>
      <point x="548" y="0" type="line"/>
      <point x="353" y="0" type="line"/>
      <point x="353" y="460" type="line"/>
      <point x="548" y="460" type="line"/>
    </contour>
    <contour>
      <point x="416" y="274" type="line"/>
      <point x="416" y="154" type="line"/>
      <point x="273" y="154" type="line" smooth="yes"/>
      <point x="178" y="154"/>
      <point x="75" y="203"/>
      <point x="75" y="312" type="curve" smooth="yes"/>
      <point x="75" y="421"/>
      <point x="178" y="460"/>
      <point x="273" y="460" type="curve" smooth="yes"/>
      <point x="416" y="460" type="line"/>
      <point x="416" y="310" type="line"/>
      <point x="308" y="310" type="line" smooth="yes"/>
      <point x="280" y="310"/>
      <point x="265" y="308"/>
      <point x="265" y="292" type="curve" smooth="yes"/>
      <point x="265" y="276"/>
      <point x="280" y="274"/>
      <point x="308" y="274" type="curve" smooth="yes"/>
    </contour>
  </outline>
</glyph>
<glyph name="endash" format="2">
  <advance width="810"/>
  <unicode hex="2013"/>
  <outline>
    <contour>
      <point x="70" y="155" type="line"/>
      <point x="70" y="320" type="line"/>
      <point x="730" y="320" type="line"/>
      <point x="730" y="155" type="line"/>
    </contour>
  </outline>
</glyph>
<glyph name="uni2089" format="2">
  <advance width="430"/>
  <unicode hex="2089"/>
  <outline>
    <contour>
      <point x="269" y="269" type="curve" smooth="yes"/>
      <point x="269" y="303"/>
      <point x="245" y="323"/>
      <point x="213" y="323" type="curve" smooth="yes"/>
      <point x="181" y="323"/>
      <point x="156" y="303"/>
      <point x="156" y="269" type="curve" smooth="yes"/>
      <point x="156" y="235"/>
      <point x="181" y="214"/>
      <point x="213" y="214" type="curve" smooth="yes"/>
      <point x="245" y="214"/>
      <point x="269" y="235"/>
    </contour>
    <contour>
      <point x="230" y="5" type="line"/>
      <point x="62" y="5" type="line"/>
      <point x="201" y="144" type="line"/>
      <point x="232" y="160" type="line"/>
      <point x="206" y="137"/>
      <point x="190" y="132"/>
      <point x="158" y="132" type="curve" smooth="yes"/>
      <point x="99" y="132"/>
      <point x="25" y="180"/>
      <point x="25" y="269" type="curve" smooth="yes"/>
      <point x="25" y="382"/>
      <point x="111" y="434"/>
      <point x="213" y="434" type="curve" smooth="yes"/>
      <point x="315" y="434"/>
      <point x="401" y="382"/>
      <point x="401" y="269" type="curve" smooth="yes"/>
      <point x="401" y="217"/>
      <point x="372" y="175"/>
      <point x="338" y="134" type="curve" smooth="yes"/>
    </contour>
  </outline>
</glyph>
<glyph name="Euro" format="2">
  <advance width="700"/>
  <unicode hex="20AC"/>
  <outline>
    <contour>
      <point x="77" y="366" type="line"/>
      <point x="77" y="472" type="line"/>
      <point x="563" y="472" type="line"/>
      <point x="563" y="366" type="line"/>
    </contour>
    <contour>
      <point x="55" y="228" type="line"/>
      <point x="55" y="334" type="line"/>
      <point x="547" y="334" type="line"/>
      <point x="547" y="228" type="line"/>
    </contour>
    <contour>
      <point x="305" y="350" type="curve" smooth="yes"/>
      <point x="305" y="207"/>
      <point x="362" y="150"/>
      <point x="440" y="150" type="curve" smooth="yes"/>
      <point x="497" y="150"/>
      <point x="549" y="172"/>
      <point x="590" y="212" type="curve"/>
      <point x="590" y="16" type="line"/>
      <point x="545" y="-10"/>
      <point x="494" y="-25"/>
      <point x="440" y="-25" type="curve" smooth="yes"/>
      <point x="236" y="-25"/>
      <point x="120" y="141"/>
      <point x="120" y="350" type="curve" smooth="yes"/>
      <point x="120" y="559"/>
      <point x="236" y="726"/>
      <point x="440" y="726" type="curve" smooth="yes"/>
      <point x="494" y="726"/>
      <point x="545" y="711"/>
      <point x="590" y="685" type="curve"/>
      <point x="590" y="488" type="line"/>
      <point x="549" y="528"/>
      <point x="497" y="550"/>
      <point x="440" y="550" type="curve" smooth="yes"/>
      <point x="362" y="550"/>
      <point x="305" y="493"/>
    </contour>
  </outline>
</glyph>
<glyph name="ruble" format="2">
  <advance width="748.0"/>
  <unicode hex="20BD"/>
  <outline>
    <contour>
      <point x="150.0" y="700" type="line"/>
      <point x="370.0" y="700" type="line"/>
      <point x="370.0" y="0" type="line"/>
      <point x="150.0" y="0" type="line"/>
    </contour>
    <contour>
      <point x="292.0" y="525" type="line"/>
      <point x="292.0" y="700" type="line"/>
      <point x="425.0" y="700" type="line" smooth="yes"/>
      <point x="630.0" y="700"/>
      <point x="718.0" y="634"/>
      <point x="718.0" y="485" type="curve" smooth="yes"/>
      <point x="718.0" y="336"/>
      <point x="630.0" y="270.0"/>
      <point x="425.0" y="270" type="curve" smooth="yes"/>
      <point x="292.0" y="270" type="line"/>
      <point x="292.0" y="445" type="line"/>
      <point x="425.0" y="445" type="line" smooth="yes"/>
      <point x="480.0" y="445.0"/>
      <point x="508.0" y="449.0"/>
      <point x="508.0" y="485" type="curve" smooth="yes"/>
      <point x="508.0" y="521.0"/>
      <point x="480.0" y="525"/>
      <point x="425.0" y="525" type="curve" smooth="yes"/>
    </contour>
    <component base="hyphen" xOffset="355.0" yOffset="-95"/>
    <component base="hyphen" xOffset="25.0" yOffset="125"/>
    <component base="hyphen" xOffset="25.0" yOffset="-95"/>
  </outline>
</glyph>
<glyph name="uni2150" format="2">
  <advance width="1002"/>
  <unicode hex="2150"/>
  <outline>
    <contour>
      <point x="628" y="700" type="line"/>
      <point x="783" y="700" type="line"/>
      <point x="263" y="0" type="line"/>
      <point x="108" y="0" type="line"/>
    </contour>
    <contour>
      <point x="20" y="549" type="line"/>
      <point x="20" y="659" type="line"/>
      <point x="257" y="703" type="line"/>
      <point x="257" y="274" type="line"/>
      <point x="131" y="274" type="line"/>
      <point x="131" y="574" type="line"/>
    </contour>
    <contour>
      <point x="613" y="297" type="line"/>
      <point x="613" y="420" type="line"/>
      <point x="985" y="420" type="line"/>
      <point x="781" y="0" type="line"/>
      <point x="638" y="0" type="line"/>
      <point x="792" y="297" type="line"/>
    </contour>
  </outline>
</glyph>
<glyph name="twothirds" format="2">
  <advance width="1082"/>
  <unicode hex="2154"/>
  <outline>
    <contour>
      <point x="775" y="700" type="line"/>
      <point x="930" y="700" type="line"/>
      <point x="410" y="0" type="line"/>
      <point x="255" y="0" type="line"/>
    </contour>
    <contour>
      <point x="30" y="282" type="line"/>
      <point x="211" y="465" type="line" smooth="yes"/>
      <point x="248" y="505"/>
      <point x="271" y="528"/>
      <point x="271" y="561" type="curve" smooth="yes"/>
      <point x="271" y="582"/>
      <point x="258" y="601"/>
      <point x="227" y="601" type="curve" smooth="yes"/>
      <point x="197" y="601"/>
      <point x="177" y="574"/>
      <point x="177" y="540" type="curve"/>
      <point x="48" y="540" type="line"/>
      <point x="48" y="629"/>
      <point x="109" y="712"/>
      <point x="232" y="712" type="curve" smooth="yes"/>
      <point x="343" y="712"/>
      <point x="407" y="642"/>
      <point x="407" y="571" type="curve" smooth="yes"/>
      <point x="407" y="525"/>
      <point x="382" y="489"/>
      <point x="344" y="460" type="curve" smooth="yes"/>
      <point x="268" y="402" type="line"/>
      <point x="422" y="402" type="line"/>
      <point x="422" y="282" type="line"/>
    </contour>
    <contour>
      <point x="844" y="201" type="curve"/>
      <point x="844" y="254" type="line"/>
      <point x="886" y="254"/>
      <point x="917" y="276"/>
      <point x="917" y="301" type="curve" smooth="yes"/>
      <point x="917" y="317"/>
      <point x="905" y="327"/>
      <point x="879" y="327" type="curve" smooth="yes"/>
      <point x="852" y="327"/>
      <point x="834" y="311"/>
      <point x="834" y="286" type="curve"/>
      <point x="713" y="286" type="line"/>
      <point x="713" y="366"/>
      <point x="778" y="429"/>
      <point x="880" y="429" type="curve" smooth="yes"/>
      <point x="988" y="429"/>
      <point x="1047" y="378"/>
      <point x="1047" y="310" type="curve" smooth="yes"/>
      <point x="1047" y="230"/>
      <point x="955" y="201"/>
    </contour>
    <contour>
      <point x="874" y="-12" type="curve" smooth="yes"/>
      <point x="760" y="-12"/>
      <point x="695" y="67"/>
      <point x="695" y="147" type="curve"/>
      <point x="825" y="147" type="line"/>
      <point x="825" y="104"/>
      <point x="853" y="90"/>
      <point x="880" y="90" type="curve" smooth="yes"/>
      <point x="907" y="90"/>
      <point x="929" y="98"/>
      <point x="929" y="129" type="curve" smooth="yes"/>
      <point x="929" y="154"/>
      <point x="910" y="177"/>
      <point x="844" y="177" type="curve"/>
      <point x="844" y="239" type="line"/>
      <point x="973" y="239"/>
      <point x="1059" y="203"/>
      <point x="1059" y="117" type="curve" smooth="yes"/>
      <point x="1059" y="43"/>
      <point x="994" y="-12"/>
    </contour>
  </outline>
</glyph>
<glyph name="uni2156" format="2">
  <advance width="1086"/>
  <unicode hex="2156"/>
  <outline>
    <contour>
      <point x="775" y="700" type="line"/>
      <point x="930" y="700" type="line"/>
      <point x="410" y="0" type="line"/>
      <point x="255" y="0" type="line"/>
    </contour>
    <contour>
      <point x="30" y="282" type="line"/>
      <point x="211" y="465" type="line" smooth="yes"/>
      <point x="248" y="505"/>
      <point x="271" y="528"/>
      <point x="271" y="561" type="curve" smooth="yes"/>
      <point x="271" y="582"/>
      <point x="258" y="601"/>
      <point x="227" y="601" type="curve" smooth="yes"/>
      <point x="197" y="601"/>
      <point x="177" y="574"/>
      <point x="177" y="540" type="curve"/>
      <point x="48" y="540" type="line"/>
      <point x="48" y="629"/>
      <point x="109" y="712"/>
      <point x="232" y="712" type="curve" smooth="yes"/>
      <point x="343" y="712"/>
      <point x="407" y="642"/>
      <point x="407" y="571" type="curve" smooth="yes"/>
      <point x="407" y="525"/>
      <point x="382" y="489"/>
      <point x="344" y="460" type="curve" smooth="yes"/>
      <point x="268" y="402" type="line"/>
      <point x="422" y="402" type="line"/>
      <point x="422" y="282" type="line"/>
    </contour>
    <contour>
      <point x="1052" y="130" type="curve" smooth="yes"/>
      <point x="1052" y="29"/>
      <point x="950" y="-11"/>
      <point x="869" y="-11" type="curve" smooth="yes"/>
      <point x="792" y="-11"/>
      <point x="736" y="5"/>
      <point x="690" y="23" type="curve"/>
      <point x="727" y="140" type="line"/>
      <point x="770" y="116"/>
      <point x="811" y="109"/>
      <point x="833" y="109" type="curve" smooth="yes"/>
      <point x="878" y="109"/>
      <point x="907" y="117"/>
      <point x="907" y="148" type="curve" smooth="yes"/>
      <point x="907" y="179"/>
      <point x="866" y="184"/>
      <point x="833" y="184" type="curve" smooth="yes"/>
      <point x="805" y="184"/>
      <point x="752" y="180"/>
      <point x="709" y="164" type="curve"/>
      <point x="804" y="222" type="line"/>
      <point x="838" y="258"/>
      <point x="876" y="265"/>
      <point x="923" y="265" type="curve" smooth="yes"/>
      <point x="986" y="265"/>
      <point x="1052" y="219"/>
    </contour>
    <contour>
      <point x="865" y="304" type="line"/>
      <point x="828" y="212" type="line"/>
      <point x="709" y="164" type="line"/>
      <point x="769" y="418" type="line"/>
      <point x="1039" y="418" type="line"/>
      <point x="1039" y="304" type="line"/>
    </contour>
  </outline>
</glyph>
<glyph name="uni2157" format="2">
  <advance width="991"/>
  <unicode hex="2157"/>
  <outline>
    <contour>
      <point x="685" y="700" type="line"/>
      <point x="840" y="700" type="line"/>
      <point x="320" y="0" type="line"/>
      <point x="165" y="0" type="line"/>
    </contour>
    <contour>
      <point x="167" y="481" type="curve"/>
      <point x="167" y="534" type="line"/>
      <point x="209" y="534"/>
      <point x="240" y="556"/>
      <point x="240" y="581" type="curve" smooth="yes"/>
      <point x="240" y="597"/>
      <point x="228" y="607"/>
      <point x="202" y="607" type="curve" smooth="yes"/>
      <point x="175" y="607"/>
      <point x="157" y="591"/>
      <point x="157" y="566" type="curve"/>
      <point x="36" y="566" type="line"/>
      <point x="36" y="646"/>
      <point x="101" y="709"/>
      <point x="203" y="709" type="curve" smooth="yes"/>
      <point x="311" y="709"/>
      <point x="370" y="658"/>
      <point x="370" y="590" type="curve" smooth="yes"/>
      <point x="370" y="510"/>
      <point x="278" y="481"/>
    </contour>
    <contour>
      <point x="197" y="268" type="curve" smooth="yes"/>
      <point x="83" y="268"/>
      <point x="18" y="347"/>
      <point x="18" y="427" type="curve"/>
      <point x="148" y="427" type="line"/>
      <point x="148" y="384"/>
      <point x="176" y="370"/>
      <point x="203" y="370" type="curve" smooth="yes"/>
      <point x="230" y="370"/>
      <point x="252" y="378"/>
      <point x="252" y="409" type="curve" smooth="yes"/>
      <point x="252" y="434"/>
      <point x="233" y="457"/>
      <point x="167" y="457" type="curve"/>
      <point x="167" y="519" type="line"/>
      <point x="296" y="519"/>
      <point x="382" y="483"/>
      <point x="382" y="397" type="curve" smooth="yes"/>
      <point x="382" y="323"/>
      <point x="317" y="268"/>
    </contour>
    <contour>
      <point x="952" y="130" type="curve" smooth="yes"/>
      <point x="952" y="29"/>
      <point x="850" y="-11"/>
      <point x="769" y="-11" type="curve" smooth="yes"/>
      <point x="692" y="-11"/>
      <point x="636" y="5"/>
      <point x="590" y="23" type="curve"/>
      <point x="627" y="140" type="line"/>
      <point x="670" y="116"/>
      <point x="711" y="109"/>
      <point x="733" y="109" type="curve" smooth="yes"/>
      <point x="778" y="109"/>
      <point x="807" y="117"/>
      <point x="807" y="148" type="curve" smooth="yes"/>
      <point x="807" y="179"/>
      <point x="766" y="184"/>
      <point x="733" y="184" type="curve" smooth="yes"/>
      <point x="705" y="184"/>
      <point x="652" y="180"/>
      <point x="609" y="164" type="curve"/>
      <point x="704" y="222" type="line"/>
      <point x="738" y="258"/>
      <point x="776" y="265"/>
      <point x="823" y="265" type="curve" smooth="yes"/>
      <point x="886" y="265"/>
      <point x="952" y="219"/>
    </contour>
    <contour>
      <point x="765" y="304" type="line"/>
      <point x="728" y="212" type="line"/>
      <point x="609" y="164" type="line"/>
      <point x="669" y="418" type="line"/>
      <point x="939" y="418" type="line"/>
      <point x="939" y="304" type="line"/>
    </contour>
  </outline>
</glyph>
<glyph name="uni2158" format="2">
  <advance width="1106"/>
  <unicode hex="2158"/>
  <outline>
    <contour>
      <point x="760" y="699" type="line"/>
      <point x="915" y="699" type="line"/>
      <point x="395" y="-1" type="line"/>
      <point x="240" y="-1" type="line"/>
    </contour>
    <contour>
      <point x="17" y="349" type="line"/>
      <point x="125" y="439" type="line"/>
      <point x="313" y="439" type="line" smooth="yes"/>
      <point x="323" y="460" type="line" smooth="yes"/>
      <point x="442" y="460" type="line"/>
      <point x="442" y="349" type="line"/>
    </contour>
    <contour>
      <point x="149" y="397" type="line"/>
      <point x="17" y="349" type="line"/>
      <point x="268" y="700" type="line"/>
      <point x="376" y="700" type="line"/>
      <point x="376" y="280" type="line"/>
      <point x="238" y="280" type="line"/>
      <point x="238" y="371" type="line" smooth="yes"/>
      <point x="256" y="377" type="line" smooth="yes"/>
      <point x="256" y="533" type="line"/>
    </contour>
    <contour>
      <point x="1077" y="129" type="curve" smooth="yes"/>
      <point x="1077" y="28"/>
      <point x="975" y="-12"/>
      <point x="894" y="-12" type="curve" smooth="yes"/>
      <point x="817" y="-12"/>
      <point x="761" y="4"/>
      <point x="715" y="22" type="curve"/>
      <point x="752" y="139" type="line"/>
      <point x="795" y="115"/>
      <point x="836" y="108"/>
      <point x="858" y="108" type="curve" smooth="yes"/>
      <point x="903" y="108"/>
      <point x="932" y="116"/>
      <point x="932" y="147" type="curve" smooth="yes"/>
      <point x="932" y="178"/>
      <point x="891" y="183"/>
      <point x="858" y="183" type="curve" smooth="yes"/>
      <point x="830" y="183"/>
      <point x="777" y="179"/>
      <point x="734" y="163" type="curve"/>
      <point x="829" y="221" type="line"/>
      <point x="863" y="257"/>
      <point x="901" y="264"/>
      <point x="948" y="264" type="curve" smooth="yes"/>
      <point x="1011" y="264"/>
      <point x="1077" y="218"/>
    </contour>
    <contour>
      <point x="890" y="303" type="line"/>
      <point x="853" y="211" type="line"/>
      <point x="734" y="163" type="line"/>
      <point x="794" y="417" type="line"/>
      <point x="1064" y="417" type="line"/>
      <point x="1064" y="303" type="line"/>
    </contour>
  </outline>
</glyph>
<glyph name="uni2159" format="2">
  <advance width="954"/>
  <unicode hex="2159"/>
  <outline>
    <contour>
      <point x="648" y="700" type="line"/>
      <point x="803" y="700" type="line"/>
      <point x="283" y="0" type="line"/>
      <point x="128" y="0" type="line"/>
    </contour>
    <contour>
      <point x="20" y="549" type="line"/>
      <point x="20" y="659" type="line"/>
      <point x="257" y="703" type="line"/>
      <point x="257" y="274" type="line"/>
      <point x="131" y="274" type="line"/>
      <point x="131" y="574" type="line"/>
    </contour>
    <contour>
      <point x="679" y="151" type="curve" smooth="yes"/>
      <point x="679" y="117"/>
      <point x="704" y="97"/>
      <point x="736" y="97" type="curve" smooth="yes"/>
      <point x="768" y="97"/>
      <point x="792" y="117"/>
      <point x="792" y="151" type="curve" smooth="yes"/>
      <point x="792" y="185"/>
      <point x="768" y="206"/>
      <point x="736" y="206" type="curve" smooth="yes"/>
      <point x="704" y="206"/>
      <point x="679" y="185"/>
    </contour>
    <contour>
      <point x="719" y="415" type="line"/>
      <point x="886" y="415" type="line"/>
      <point x="748" y="276" type="line"/>
      <point x="717" y="260" type="line"/>
      <point x="743" y="283"/>
      <point x="758" y="288"/>
      <point x="790" y="288" type="curve" smooth="yes"/>
      <point x="849" y="288"/>
      <point x="924" y="240"/>
      <point x="924" y="151" type="curve" smooth="yes"/>
      <point x="924" y="38"/>
      <point x="838" y="-14"/>
      <point x="736" y="-14" type="curve" smooth="yes"/>
      <point x="634" y="-14"/>
      <point x="548" y="38"/>
      <point x="548" y="151" type="curve" smooth="yes"/>
      <point x="548" y="203"/>
      <point x="576" y="245"/>
      <point x="610" y="286" type="curve" smooth="yes"/>
    </contour>
  </outline>
</glyph>
<glyph name="emptyset" format="2">
  <advance width="600"/>
  <unicode hex="2205"/>
  <outline>
    <contour>
      <point x="298" y="18" type="curve" smooth="yes"/>
      <point x="174" y="18"/>
      <point x="74" y="119"/>
      <point x="74" y="243" type="curve" smooth="yes"/>
      <point x="74" y="367"/>
      <point x="174" y="468"/>
      <point x="298" y="468" type="curve" smooth="yes"/>
      <point x="422" y="468"/>
      <point x="523" y="367"/>
      <point x="523" y="243" type="curve" smooth="yes"/>
      <point x="523" y="119"/>
      <point x="422" y="18"/>
    </contour>
    <contour>
      <point x="298" y="140" type="curve" smooth="yes"/>
      <point x="356" y="140"/>
      <point x="402" y="189"/>
      <point x="402" y="243" type="curve" smooth="yes"/>
      <point x="402" y="300"/>
      <point x="355" y="346"/>
      <point x="298" y="346" type="curve" smooth="yes"/>
      <point x="241" y="346"/>
      <point x="196" y="300"/>
      <point x="196" y="243" type="curve" smooth="yes"/>
      <point x="196" y="186"/>
      <point x="241" y="140"/>
    </contour>
    <contour>
      <point x="134" y="18" type="line"/>
      <point x="72" y="80" type="line"/>
      <point x="462" y="468" type="line"/>
      <point x="524" y="406" type="line"/>
    </contour>
  </outline>
</glyph>
<glyph name="product" format="2">
  <advance width="600"/>
  <unicode hex="220F"/>
  <outline>
    <contour>
      <point x="108" y="0" type="line"/>
      <point x="108" y="554" type="line"/>
      <point x="37" y="554" type="line"/>
      <point x="37" y="700" type="line"/>
      <point x="563" y="700" type="line"/>
      <point x="563" y="554" type="line"/>
      <point x="492" y="554" type="line"/>
      <point x="492" y="0" type="line"/>
      <point x="341" y="0" type="line"/>
      <point x="341" y="554" type="line"/>
      <point x="259" y="554" type="line"/>
      <point x="259" y="0" type="line"/>
    </contour>
  </outline>
</glyph>
<glyph name="approxequal" format="2">
  <advance width="600"/>
  <unicode hex="2248"/>
  <outline>
    <contour>
      <point x="414" y="292" type="curve" smooth="yes"/>
      <point x="516" y="292"/>
      <point x="582" y="382"/>
      <point x="556" y="488" type="curve"/>
      <point x="409" y="493" type="line"/>
      <point x="427" y="448"/>
      <point x="424" y="422"/>
      <point x="400" y="422" type="curve" smooth="yes"/>
      <point x="386" y="422"/>
      <point x="362" y="433"/>
      <point x="320" y="458" type="curve" smooth="yes"/>
      <point x="261" y="494"/>
      <point x="225" y="507"/>
      <point x="184" y="507" type="curve" smooth="yes"/>
      <point x="69" y="507"/>
      <point x="-12" y="412"/>
      <point x="18" y="311" type="curve"/>
      <point x="165" y="306" type="line"/>
      <point x="145" y="359"/>
      <point x="151" y="383"/>
      <point x="183" y="383" type="curve" smooth="yes"/>
      <point x="203" y="383"/>
      <point x="234" y="369"/>
      <point x="274" y="343" type="curve" smooth="yes"/>
      <point x="326" y="309"/>
      <point x="371" y="292"/>
    </contour>
    <contour>
      <point x="414" y="42" type="curve" smooth="yes"/>
      <point x="516" y="42"/>
      <point x="582" y="132"/>
      <point x="556" y="238" type="curve"/>
      <point x="409" y="243" type="line"/>
      <point x="427" y="198"/>
      <point x="424" y="172"/>
      <point x="400" y="172" type="curve" smooth="yes"/>
      <point x="386" y="172"/>
      <point x="362" y="183"/>
      <point x="320" y="208" type="curve" smooth="yes"/>
      <point x="261" y="244"/>
      <point x="225" y="257"/>
      <point x="184" y="257" type="curve" smooth="yes"/>
      <point x="69" y="257"/>
      <point x="-12" y="162"/>
      <point x="18" y="61" type="curve"/>
      <point x="165" y="56" type="line"/>
      <point x="145" y="109"/>
      <point x="151" y="133"/>
      <point x="183" y="133" type="curve" smooth="yes"/>
      <point x="203" y="133"/>
      <point x="234" y="119"/>
      <point x="274" y="93" type="curve" smooth="yes"/>
      <point x="326" y="59"/>
      <point x="371" y="42"/>
    </contour>
  </outline>
</glyph>
<glyph name="lessequal" format="2">
  <advance width="600"/>
  <unicode hex="2264"/>
  <outline>
    <contour>
      <point x="65" y="10" type="line"/>
      <point x="580" y="10" type="line"/>
      <point x="580" y="170" type="line"/>
      <point x="65" y="170" type="line"/>
    </contour>
    <contour>
      <point x="575" y="190" type="line"/>
      <point x="575" y="380" type="line"/>
      <point x="331" y="471" type="line"/>
      <point x="575" y="555" type="line"/>
      <point x="575" y="745" type="line"/>
      <point x="65" y="535" type="line"/>
      <point x="65" y="400" type="line"/>
    </contour>
  </outline>
</glyph>
<glyph name="lozenge" format="2">
  <advance width="600"/>
  <unicode hex="25CA"/>
  <outline>
    <contour>
      <point x="306" y="15" type="line"/>
      <point x="500" y="356" type="line"/>
      <point x="306" y="696" type="line"/>
      <point x="100" y="356" type="line"/>
    </contour>
    <contour>
      <point x="301" y="283" type="line"/>
      <point x="257" y="356" type="line"/>
      <point x="301" y="428" type="line"/>
      <point x="343" y="356" type="line"/>
    </contour>
  </outline>
</glyph>
<glyph name="uniFF11" format="2">
  <advance width="660"/>
  <unicode hex="FF11"/>
  <outline>
    <contour>
      <point x="105" y="459" type="line"/>
      <point x="105" y="642" type="line"/>
      <point x="500" y="715" type="line"/>
      <point x="500" y="0" type="line"/>
      <point x="290" y="0" type="line"/>
      <point x="290" y="500" type="line"/>
    </contour>
  </outline>
</glyph>
<glyph name="uniFF14" format="2">
  <advance width="660"/>
  <unicode hex="FF14"/>
  <outline>
    <contour>
      <point x="8" y="115" type="line"/>
      <point x="188" y="265" type="line"/>
      <point x="451" y="265" type="line" smooth="yes"/>
      <point x="468" y="300" type="line" smooth="yes"/>
      <point x="646" y="300" type="line"/>
      <point x="646" y="115" type="line"/>
    </contour>
    <contour>
      <point x="208" y="195" type="line"/>
      <point x="8" y="115" type="line"/>
      <point x="376" y="700" type="line"/>
      <point x="556" y="700" type="line"/>
      <point x="556" y="0" type="line"/>
      <point x="326" y="0" type="line"/>
      <point x="326" y="151" type="line" smooth="yes"/>
      <point x="356" y="162" type="line" smooth="yes"/>
      <point x="356" y="421" type="line"/>
    </contour>
  </outline>
</glyph>
<glyph name="uniFF17" format="2">
  <advance width="660"/>
  <unicode hex="FF17"/>
  <outline>
    <contour>
      <point x="27" y="495" type="line"/>
      <point x="27" y="700" type="line"/>
      <point x="647" y="700" type="line"/>
      <point x="307" y="0" type="line"/>
      <point x="68" y="0" type="line"/>
      <point x="326" y="495" type="line"/>
    </contour>
  </outline>
</glyph>
